solid ASCII
  facet normal -0.000000e+00 -0.000000e+00 -1.000000e+00
    outer loop
      vertex   -2.100000e+00 5.319000e+01 3.430000e+00
      vertex   -2.100000e+00 4.590000e+01 3.430000e+00
      vertex   -3.000000e+00 5.319000e+01 3.430000e+00
    endloop
  endfacet
  facet normal 0.000000e+00 0.000000e+00 -1.000000e+00
    outer loop
      vertex   -3.000000e+00 5.319000e+01 3.430000e+00
      vertex   -2.100000e+00 4.590000e+01 3.430000e+00
      vertex   -3.000000e+00 4.500000e+01 3.430000e+00
    endloop
  endfacet
  facet normal 0.000000e+00 0.000000e+00 -1.000000e+00
    outer loop
      vertex   -3.000000e+00 4.500000e+01 3.430000e+00
      vertex   -2.100000e+00 4.590000e+01 3.430000e+00
      vertex   2.750000e+01 4.590000e+01 3.430000e+00
    endloop
  endfacet
  facet normal 0.000000e+00 0.000000e+00 -1.000000e+00
    outer loop
      vertex   -3.000000e+00 4.500000e+01 3.430000e+00
      vertex   2.750000e+01 4.590000e+01 3.430000e+00
      vertex   2.840000e+01 4.500000e+01 3.430000e+00
    endloop
  endfacet
  facet normal 0.000000e+00 0.000000e+00 -1.000000e+00
    outer loop
      vertex   2.840000e+01 4.500000e+01 3.430000e+00
      vertex   2.750000e+01 4.590000e+01 3.430000e+00
      vertex   2.840000e+01 5.319000e+01 3.430000e+00
    endloop
  endfacet
  facet normal -0.000000e+00 0.000000e+00 -1.000000e+00
    outer loop
      vertex   2.840000e+01 5.319000e+01 3.430000e+00
      vertex   2.750000e+01 4.590000e+01 3.430000e+00
      vertex   2.750000e+01 5.319000e+01 3.430000e+00
    endloop
  endfacet
  facet normal 0.000000e+00 0.000000e+00 -1.000000e+00
    outer loop
      vertex   -2.100000e+00 5.659000e+01 3.430000e+00
      vertex   -3.000000e+00 5.659000e+01 3.430000e+00
      vertex   -2.100000e+00 6.388000e+01 3.430000e+00
    endloop
  endfacet
  facet normal -0.000000e+00 0.000000e+00 -1.000000e+00
    outer loop
      vertex   -2.100000e+00 6.388000e+01 3.430000e+00
      vertex   -3.000000e+00 5.659000e+01 3.430000e+00
      vertex   -3.000000e+00 6.478000e+01 3.430000e+00
    endloop
  endfacet
  facet normal 0.000000e+00 0.000000e+00 -1.000000e+00
    outer loop
      vertex   -2.100000e+00 6.388000e+01 3.430000e+00
      vertex   -3.000000e+00 6.478000e+01 3.430000e+00
      vertex   2.750000e+01 6.388000e+01 3.430000e+00
    endloop
  endfacet
  facet normal 0.000000e+00 0.000000e+00 -1.000000e+00
    outer loop
      vertex   2.750000e+01 6.388000e+01 3.430000e+00
      vertex   -3.000000e+00 6.478000e+01 3.430000e+00
      vertex   2.840000e+01 6.478000e+01 3.430000e+00
    endloop
  endfacet
  facet normal 0.000000e+00 0.000000e+00 -1.000000e+00
    outer loop
      vertex   2.750000e+01 6.388000e+01 3.430000e+00
      vertex   2.840000e+01 6.478000e+01 3.430000e+00
      vertex   2.840000e+01 5.659000e+01 3.430000e+00
    endloop
  endfacet
  facet normal 0.000000e+00 0.000000e+00 -1.000000e+00
    outer loop
      vertex   2.840000e+01 5.659000e+01 3.430000e+00
      vertex   2.750000e+01 5.659000e+01 3.430000e+00
      vertex   2.750000e+01 6.388000e+01 3.430000e+00
    endloop
  endfacet
  facet normal -3.392447e-06 -1.000000e+00 -1.507754e-06
    outer loop
      vertex   -2.100000e+00 5.659000e+01 1.630000e+00
      vertex   -1.300000e+00 5.659000e+01 1.630000e+00
      vertex   -2.100000e+00 5.659000e+01 3.430000e+00
    endloop
  endfacet
  facet normal 0.000000e+00 -1.000000e+00 0.000000e+00
    outer loop
      vertex   -2.100000e+00 5.659000e+01 3.430000e+00
      vertex   -1.300000e+00 5.659000e+01 1.630000e+00
      vertex   -1.300000e+00 5.659000e+01 3.880000e+00
    endloop
  endfacet
  facet normal 0.000000e+00 -1.000000e+00 0.000000e+00
    outer loop
      vertex   -2.100000e+00 5.659000e+01 3.430000e+00
      vertex   -1.300000e+00 5.659000e+01 3.880000e+00
      vertex   -3.000000e+00 5.659000e+01 3.880000e+00
    endloop
  endfacet
  facet normal 0.000000e+00 -1.000000e+00 0.000000e+00
    outer loop
      vertex   -3.000000e+00 5.659000e+01 3.880000e+00
      vertex   -3.000000e+00 5.659000e+01 3.430000e+00
      vertex   -2.100000e+00 5.659000e+01 3.430000e+00
    endloop
  endfacet
  facet normal 1.000000e+00 0.000000e+00 0.000000e+00
    outer loop
      vertex   2.750000e+01 5.319000e+01 3.430000e+00
      vertex   2.750000e+01 4.590000e+01 3.430000e+00
      vertex   2.750000e+01 5.319000e+01 1.630000e+00
    endloop
  endfacet
  facet normal 1.000000e+00 0.000000e+00 0.000000e+00
    outer loop
      vertex   2.750000e+01 5.319000e+01 1.630000e+00
      vertex   2.750000e+01 4.590000e+01 3.430000e+00
      vertex   2.750000e+01 4.590000e+01 1.630000e+00
    endloop
  endfacet
  facet normal 1.000000e+00 0.000000e+00 0.000000e+00
    outer loop
      vertex   2.750000e+01 5.659000e+01 1.630000e+00
      vertex   2.750000e+01 6.388000e+01 1.630000e+00
      vertex   2.750000e+01 5.659000e+01 3.430000e+00
    endloop
  endfacet
  facet normal 1.000000e+00 -0.000000e+00 0.000000e+00
    outer loop
      vertex   2.750000e+01 5.659000e+01 3.430000e+00
      vertex   2.750000e+01 6.388000e+01 1.630000e+00
      vertex   2.750000e+01 6.388000e+01 3.430000e+00
    endloop
  endfacet
  facet normal 0.000000e+00 0.000000e+00 -1.000000e+00
    outer loop
      vertex   2.670000e+01 5.319000e+01 1.630000e+00
      vertex   2.750000e+01 5.319000e+01 1.630000e+00
      vertex   2.670000e+01 4.670000e+01 1.630000e+00
    endloop
  endfacet
  facet normal 0.000000e+00 0.000000e+00 -1.000000e+00
    outer loop
      vertex   2.670000e+01 4.670000e+01 1.630000e+00
      vertex   2.750000e+01 5.319000e+01 1.630000e+00
      vertex   2.750000e+01 4.590000e+01 1.630000e+00
    endloop
  endfacet
  facet normal -0.000000e+00 -0.000000e+00 -1.000000e+00
    outer loop
      vertex   2.670000e+01 4.670000e+01 1.630000e+00
      vertex   2.750000e+01 4.590000e+01 1.630000e+00
      vertex   -1.300000e+00 4.670000e+01 1.630000e+00
    endloop
  endfacet
  facet normal 0.000000e+00 -0.000000e+00 -1.000000e+00
    outer loop
      vertex   -1.300000e+00 4.670000e+01 1.630000e+00
      vertex   2.750000e+01 4.590000e+01 1.630000e+00
      vertex   -2.100000e+00 4.590000e+01 1.630000e+00
    endloop
  endfacet
  facet normal -0.000000e+00 0.000000e+00 -1.000000e+00
    outer loop
      vertex   -1.300000e+00 4.670000e+01 1.630000e+00
      vertex   -2.100000e+00 4.590000e+01 1.630000e+00
      vertex   -2.100000e+00 5.319000e+01 1.630000e+00
    endloop
  endfacet
  facet normal 0.000000e+00 0.000000e+00 -1.000000e+00
    outer loop
      vertex   -2.100000e+00 5.319000e+01 1.630000e+00
      vertex   -1.300000e+00 5.319000e+01 1.630000e+00
      vertex   -1.300000e+00 4.670000e+01 1.630000e+00
    endloop
  endfacet
  facet normal 0.000000e+00 3.918434e-16 -1.000000e+00
    outer loop
      vertex   2.670000e+01 5.659000e+01 3.880000e+00
      vertex   2.840000e+01 5.659000e+01 3.880000e+00
      vertex   2.670000e+01 5.319000e+01 3.880000e+00
    endloop
  endfacet
  facet normal 0.000000e+00 3.918434e-16 -1.000000e+00
    outer loop
      vertex   2.670000e+01 5.319000e+01 3.880000e+00
      vertex   2.840000e+01 5.659000e+01 3.880000e+00
      vertex   2.840000e+01 5.319000e+01 3.880000e+00
    endloop
  endfacet
  facet normal -0.000000e+00 -1.000000e+00 0.000000e+00
    outer loop
      vertex   2.840000e+01 5.659000e+01 3.880000e+00
      vertex   2.670000e+01 5.659000e+01 3.880000e+00
      vertex   2.750000e+01 5.659000e+01 3.430000e+00
    endloop
  endfacet
  facet normal -0.000000e+00 -1.000000e+00 0.000000e+00
    outer loop
      vertex   2.750000e+01 5.659000e+01 3.430000e+00
      vertex   2.670000e+01 5.659000e+01 3.880000e+00
      vertex   2.670000e+01 5.659000e+01 1.630000e+00
    endloop
  endfacet
  facet normal 0.000000e+00 -1.000000e+00 -0.000000e+00
    outer loop
      vertex   2.750000e+01 5.659000e+01 3.430000e+00
      vertex   2.670000e+01 5.659000e+01 1.630000e+00
      vertex   2.750000e+01 5.659000e+01 1.630000e+00
    endloop
  endfacet
  facet normal 0.000000e+00 -1.000000e+00 0.000000e+00
    outer loop
      vertex   2.750000e+01 5.659000e+01 3.430000e+00
      vertex   2.840000e+01 5.659000e+01 3.430000e+00
      vertex   2.840000e+01 5.659000e+01 3.880000e+00
    endloop
  endfacet
  facet normal 0.000000e+00 1.000000e+00 -0.000000e+00
    outer loop
      vertex   2.750000e+01 5.319000e+01 1.630000e+00
      vertex   2.670000e+01 5.319000e+01 1.630000e+00
      vertex   2.750000e+01 5.319000e+01 3.430000e+00
    endloop
  endfacet
  facet normal 0.000000e+00 1.000000e+00 0.000000e+00
    outer loop
      vertex   2.750000e+01 5.319000e+01 3.430000e+00
      vertex   2.670000e+01 5.319000e+01 1.630000e+00
      vertex   2.670000e+01 5.319000e+01 3.880000e+00
    endloop
  endfacet
  facet normal 0.000000e+00 1.000000e+00 -0.000000e+00
    outer loop
      vertex   2.750000e+01 5.319000e+01 3.430000e+00
      vertex   2.670000e+01 5.319000e+01 3.880000e+00
      vertex   2.840000e+01 5.319000e+01 3.880000e+00
    endloop
  endfacet
  facet normal 0.000000e+00 1.000000e+00 0.000000e+00
    outer loop
      vertex   2.840000e+01 5.319000e+01 3.880000e+00
      vertex   2.840000e+01 5.319000e+01 3.430000e+00
      vertex   2.750000e+01 5.319000e+01 3.430000e+00
    endloop
  endfacet
  facet normal 0.000000e+00 1.000000e+00 0.000000e+00
    outer loop
      vertex   -3.000000e+00 5.319000e+01 3.430000e+00
      vertex   -3.000000e+00 5.319000e+01 3.880000e+00
      vertex   -2.100000e+00 5.319000e+01 3.430000e+00
    endloop
  endfacet
  facet normal 0.000000e+00 1.000000e+00 -0.000000e+00
    outer loop
      vertex   -2.100000e+00 5.319000e+01 3.430000e+00
      vertex   -3.000000e+00 5.319000e+01 3.880000e+00
      vertex   -1.300000e+00 5.319000e+01 3.880000e+00
    endloop
  endfacet
  facet normal -0.000000e+00 1.000000e+00 0.000000e+00
    outer loop
      vertex   -2.100000e+00 5.319000e+01 3.430000e+00
      vertex   -1.300000e+00 5.319000e+01 3.880000e+00
      vertex   -1.300000e+00 5.319000e+01 1.630000e+00
    endloop
  endfacet
  facet normal 3.392447e-06 1.000000e+00 1.507754e-06
    outer loop
      vertex   -1.300000e+00 5.319000e+01 1.630000e+00
      vertex   -2.100000e+00 5.319000e+01 1.630000e+00
      vertex   -2.100000e+00 5.319000e+01 3.430000e+00
    endloop
  endfacet
  facet normal 1.000000e+00 -4.337868e-16 0.000000e+00
    outer loop
      vertex   2.840000e+01 5.319000e+01 3.430000e+00
      vertex   2.840000e+01 5.319000e+01 3.880000e+00
      vertex   2.840000e+01 4.500000e+01 3.430000e+00
    endloop
  endfacet
  facet normal 1.000000e+00 -3.310478e-16 -1.869849e-15
    outer loop
      vertex   2.840000e+01 4.500000e+01 3.430000e+00
      vertex   2.840000e+01 5.319000e+01 3.880000e+00
      vertex   2.840000e+01 4.500000e+01 5.330000e+00
    endloop
  endfacet
  facet normal 1.000000e+00 0.000000e+00 0.000000e+00
    outer loop
      vertex   2.840000e+01 4.500000e+01 5.330000e+00
      vertex   2.840000e+01 5.319000e+01 3.880000e+00
      vertex   2.840000e+01 5.659000e+01 3.880000e+00
    endloop
  endfacet
  facet normal 1.000000e+00 -0.000000e+00 0.000000e+00
    outer loop
      vertex   2.840000e+01 4.500000e+01 5.330000e+00
      vertex   2.840000e+01 5.659000e+01 3.880000e+00
      vertex   2.840000e+01 6.478000e+01 5.330000e+00
    endloop
  endfacet
  facet normal 1.000000e+00 0.000000e+00 0.000000e+00
    outer loop
      vertex   2.840000e+01 6.478000e+01 5.330000e+00
      vertex   2.840000e+01 5.659000e+01 3.880000e+00
      vertex   2.840000e+01 6.478000e+01 3.430000e+00
    endloop
  endfacet
  facet normal 1.000000e+00 0.000000e+00 0.000000e+00
    outer loop
      vertex   2.840000e+01 6.478000e+01 3.430000e+00
      vertex   2.840000e+01 5.659000e+01 3.880000e+00
      vertex   2.840000e+01 5.659000e+01 3.430000e+00
    endloop
  endfacet
  facet normal -9.954719e-01 9.505604e-02 0.000000e+00
    outer loop
      vertex   3.767411e+00 4.830344e+01 4.530000e+00
      vertex   3.767411e+00 4.830344e+01 5.330000e+00
      vertex   3.790000e+00 4.854000e+01 4.530000e+00
    endloop
  endfacet
  facet normal -9.954719e-01 9.505604e-02 0.000000e+00
    outer loop
      vertex   3.790000e+00 4.854000e+01 4.530000e+00
      vertex   3.767411e+00 4.830344e+01 5.330000e+00
      vertex   3.790000e+00 4.854000e+01 5.330000e+00
    endloop
  endfacet
  facet normal -9.954719e-01 -9.505604e-02 0.000000e+00
    outer loop
      vertex   3.790000e+00 4.854000e+01 4.530000e+00
      vertex   3.790000e+00 4.854000e+01 5.330000e+00
      vertex   3.767411e+00 4.877656e+01 4.530000e+00
    endloop
  endfacet
  facet normal -9.954719e-01 -9.505604e-02 0.000000e+00
    outer loop
      vertex   3.767411e+00 4.877656e+01 4.530000e+00
      vertex   3.790000e+00 4.854000e+01 5.330000e+00
      vertex   3.767411e+00 4.877656e+01 5.330000e+00
    endloop
  endfacet
  facet normal -9.594930e-01 -2.817326e-01 0.000000e+00
    outer loop
      vertex   3.767411e+00 4.877656e+01 4.530000e+00
      vertex   3.767411e+00 4.877656e+01 5.330000e+00
      vertex   3.700460e+00 4.900458e+01 4.530000e+00
    endloop
  endfacet
  facet normal -9.594930e-01 -2.817326e-01 0.000000e+00
    outer loop
      vertex   3.700460e+00 4.900458e+01 4.530000e+00
      vertex   3.767411e+00 4.877656e+01 5.330000e+00
      vertex   3.700460e+00 4.900458e+01 5.330000e+00
    endloop
  endfacet
  facet normal -8.888354e-01 -4.582265e-01 0.000000e+00
    outer loop
      vertex   3.700460e+00 4.900458e+01 4.530000e+00
      vertex   3.700460e+00 4.900458e+01 5.330000e+00
      vertex   3.591567e+00 4.921580e+01 4.530000e+00
    endloop
  endfacet
  facet normal -8.888354e-01 -4.582265e-01 0.000000e+00
    outer loop
      vertex   3.591567e+00 4.921580e+01 4.530000e+00
      vertex   3.700460e+00 4.900458e+01 5.330000e+00
      vertex   3.591567e+00 4.921580e+01 5.330000e+00
    endloop
  endfacet
  facet normal -7.860531e-01 -6.181590e-01 0.000000e+00
    outer loop
      vertex   3.591567e+00 4.921580e+01 4.530000e+00
      vertex   3.591567e+00 4.921580e+01 5.330000e+00
      vertex   3.444668e+00 4.940260e+01 4.530000e+00
    endloop
  endfacet
  facet normal -7.860531e-01 -6.181590e-01 0.000000e+00
    outer loop
      vertex   3.444668e+00 4.940260e+01 4.530000e+00
      vertex   3.591567e+00 4.921580e+01 5.330000e+00
      vertex   3.444668e+00 4.940260e+01 5.330000e+00
    endloop
  endfacet
  facet normal -6.548607e-01 -7.557496e-01 0.000000e+00
    outer loop
      vertex   3.444668e+00 4.940260e+01 4.530000e+00
      vertex   3.444668e+00 4.940260e+01 5.330000e+00
      vertex   3.265071e+00 4.955822e+01 4.530000e+00
    endloop
  endfacet
  facet normal -6.548607e-01 -7.557496e-01 0.000000e+00
    outer loop
      vertex   3.265071e+00 4.955822e+01 4.530000e+00
      vertex   3.444668e+00 4.940260e+01 5.330000e+00
      vertex   3.265071e+00 4.955822e+01 5.330000e+00
    endloop
  endfacet
  facet normal -5.000000e-01 -8.660254e-01 0.000000e+00
    outer loop
      vertex   3.265071e+00 4.955822e+01 4.530000e+00
      vertex   3.265071e+00 4.955822e+01 5.330000e+00
      vertex   3.059269e+00 4.967704e+01 4.530000e+00
    endloop
  endfacet
  facet normal -5.000000e-01 -8.660254e-01 -5.551115e-16
    outer loop
      vertex   3.059269e+00 4.967704e+01 4.530000e+00
      vertex   3.265071e+00 4.955822e+01 5.330000e+00
      vertex   3.059269e+00 4.967704e+01 5.330000e+00
    endloop
  endfacet
  facet normal -3.270680e-01 -9.450008e-01 -3.631184e-16
    outer loop
      vertex   3.059269e+00 4.967704e+01 4.530000e+00
      vertex   3.059269e+00 4.967704e+01 5.330000e+00
      vertex   2.834699e+00 4.975476e+01 4.530000e+00
    endloop
  endfacet
  facet normal -3.270680e-01 -9.450008e-01 -1.815592e-16
    outer loop
      vertex   2.834699e+00 4.975476e+01 4.530000e+00
      vertex   3.059269e+00 4.967704e+01 5.330000e+00
      vertex   2.834699e+00 4.975476e+01 5.330000e+00
    endloop
  endfacet
  facet normal -1.423148e-01 -9.898214e-01 -7.900061e-17
    outer loop
      vertex   2.834699e+00 4.975476e+01 4.530000e+00
      vertex   2.834699e+00 4.975476e+01 5.330000e+00
      vertex   2.599477e+00 4.978858e+01 4.530000e+00
    endloop
  endfacet
  facet normal -1.423148e-01 -9.898214e-01 0.000000e+00
    outer loop
      vertex   2.599477e+00 4.978858e+01 4.530000e+00
      vertex   2.834699e+00 4.975476e+01 5.330000e+00
      vertex   2.599477e+00 4.978858e+01 5.330000e+00
    endloop
  endfacet
  facet normal 4.758192e-02 -9.988673e-01 0.000000e+00
    outer loop
      vertex   2.599477e+00 4.978858e+01 4.530000e+00
      vertex   2.599477e+00 4.978858e+01 5.330000e+00
      vertex   2.362106e+00 4.977728e+01 4.530000e+00
    endloop
  endfacet
  facet normal 4.758192e-02 -9.988673e-01 0.000000e+00
    outer loop
      vertex   2.362106e+00 4.977728e+01 4.530000e+00
      vertex   2.599477e+00 4.978858e+01 5.330000e+00
      vertex   2.362106e+00 4.977728e+01 5.330000e+00
    endloop
  endfacet
  facet normal 2.357589e-01 -9.718116e-01 0.000000e+00
    outer loop
      vertex   2.362106e+00 4.977728e+01 4.530000e+00
      vertex   2.362106e+00 4.977728e+01 5.330000e+00
      vertex   2.131165e+00 4.972125e+01 4.530000e+00
    endloop
  endfacet
  facet normal 2.357589e-01 -9.718116e-01 0.000000e+00
    outer loop
      vertex   2.131165e+00 4.972125e+01 4.530000e+00
      vertex   2.362106e+00 4.977728e+01 5.330000e+00
      vertex   2.131165e+00 4.972125e+01 5.330000e+00
    endloop
  endfacet
  facet normal 4.154150e-01 -9.096320e-01 0.000000e+00
    outer loop
      vertex   2.131165e+00 4.972125e+01 4.530000e+00
      vertex   2.131165e+00 4.972125e+01 5.330000e+00
      vertex   1.915000e+00 4.962253e+01 4.530000e+00
    endloop
  endfacet
  facet normal 4.154150e-01 -9.096320e-01 2.306017e-16
    outer loop
      vertex   1.915000e+00 4.962253e+01 4.530000e+00
      vertex   2.131165e+00 4.972125e+01 5.330000e+00
      vertex   1.915000e+00 4.962253e+01 5.330000e+00
    endloop
  endfacet
  facet normal 5.800569e-01 -8.145760e-01 3.219963e-16
    outer loop
      vertex   1.915000e+00 4.962253e+01 4.530000e+00
      vertex   1.915000e+00 4.962253e+01 5.330000e+00
      vertex   1.721424e+00 4.948469e+01 4.530000e+00
    endloop
  endfacet
  facet normal 5.800569e-01 -8.145760e-01 0.000000e+00
    outer loop
      vertex   1.721424e+00 4.948469e+01 4.530000e+00
      vertex   1.915000e+00 4.962253e+01 5.330000e+00
      vertex   1.721424e+00 4.948469e+01 5.330000e+00
    endloop
  endfacet
  facet normal 7.237340e-01 -6.900790e-01 0.000000e+00
    outer loop
      vertex   1.721424e+00 4.948469e+01 4.530000e+00
      vertex   1.721424e+00 4.948469e+01 5.330000e+00
      vertex   1.557434e+00 4.931270e+01 4.530000e+00
    endloop
  endfacet
  facet normal 7.237340e-01 -6.900790e-01 0.000000e+00
    outer loop
      vertex   1.557434e+00 4.931270e+01 4.530000e+00
      vertex   1.721424e+00 4.948469e+01 5.330000e+00
      vertex   1.557434e+00 4.931270e+01 5.330000e+00
    endloop
  endfacet
  facet normal 8.412535e-01 -5.406408e-01 0.000000e+00
    outer loop
      vertex   1.557434e+00 4.931270e+01 4.530000e+00
      vertex   1.557434e+00 4.931270e+01 5.330000e+00
      vertex   1.428956e+00 4.911278e+01 4.530000e+00
    endloop
  endfacet
  facet normal 8.412535e-01 -5.406408e-01 0.000000e+00
    outer loop
      vertex   1.428956e+00 4.911278e+01 4.530000e+00
      vertex   1.557434e+00 4.931270e+01 5.330000e+00
      vertex   1.428956e+00 4.911278e+01 5.330000e+00
    endloop
  endfacet
  facet normal 9.283679e-01 -3.716625e-01 0.000000e+00
    outer loop
      vertex   1.428956e+00 4.911278e+01 4.530000e+00
      vertex   1.428956e+00 4.911278e+01 5.330000e+00
      vertex   1.340634e+00 4.889217e+01 4.530000e+00
    endloop
  endfacet
  facet normal 9.283679e-01 -3.716625e-01 0.000000e+00
    outer loop
      vertex   1.340634e+00 4.889217e+01 4.530000e+00
      vertex   1.428956e+00 4.911278e+01 5.330000e+00
      vertex   1.340634e+00 4.889217e+01 5.330000e+00
    endloop
  endfacet
  facet normal 9.819287e-01 -1.892512e-01 0.000000e+00
    outer loop
      vertex   1.340634e+00 4.889217e+01 4.530000e+00
      vertex   1.340634e+00 4.889217e+01 5.330000e+00
      vertex   1.295660e+00 4.865882e+01 4.530000e+00
    endloop
  endfacet
  facet normal 9.819287e-01 -1.892512e-01 0.000000e+00
    outer loop
      vertex   1.295660e+00 4.865882e+01 4.530000e+00
      vertex   1.340634e+00 4.889217e+01 5.330000e+00
      vertex   1.295660e+00 4.865882e+01 5.330000e+00
    endloop
  endfacet
  facet normal 1.000000e+00 0.000000e+00 -0.000000e+00
    outer loop
      vertex   1.295660e+00 4.865882e+01 4.530000e+00
      vertex   1.295660e+00 4.865882e+01 5.330000e+00
      vertex   1.295660e+00 4.842118e+01 4.530000e+00
    endloop
  endfacet
  facet normal 1.000000e+00 0.000000e+00 0.000000e+00
    outer loop
      vertex   1.295660e+00 4.842118e+01 4.530000e+00
      vertex   1.295660e+00 4.865882e+01 5.330000e+00
      vertex   1.295660e+00 4.842118e+01 5.330000e+00
    endloop
  endfacet
  facet normal 9.819287e-01 1.892512e-01 -0.000000e+00
    outer loop
      vertex   1.295660e+00 4.842118e+01 4.530000e+00
      vertex   1.295660e+00 4.842118e+01 5.330000e+00
      vertex   1.340634e+00 4.818783e+01 4.530000e+00
    endloop
  endfacet
  facet normal 9.819287e-01 1.892512e-01 -0.000000e+00
    outer loop
      vertex   1.340634e+00 4.818783e+01 4.530000e+00
      vertex   1.295660e+00 4.842118e+01 5.330000e+00
      vertex   1.340634e+00 4.818783e+01 5.330000e+00
    endloop
  endfacet
  facet normal 9.283679e-01 3.716625e-01 -0.000000e+00
    outer loop
      vertex   1.340634e+00 4.818783e+01 4.530000e+00
      vertex   1.340634e+00 4.818783e+01 5.330000e+00
      vertex   1.428956e+00 4.796722e+01 4.530000e+00
    endloop
  endfacet
  facet normal 9.283679e-01 3.716625e-01 -0.000000e+00
    outer loop
      vertex   1.428956e+00 4.796722e+01 4.530000e+00
      vertex   1.340634e+00 4.818783e+01 5.330000e+00
      vertex   1.428956e+00 4.796722e+01 5.330000e+00
    endloop
  endfacet
  facet normal 8.412535e-01 5.406408e-01 -0.000000e+00
    outer loop
      vertex   1.428956e+00 4.796722e+01 4.530000e+00
      vertex   1.428956e+00 4.796722e+01 5.330000e+00
      vertex   1.557434e+00 4.776730e+01 4.530000e+00
    endloop
  endfacet
  facet normal 8.412535e-01 5.406408e-01 -0.000000e+00
    outer loop
      vertex   1.557434e+00 4.776730e+01 4.530000e+00
      vertex   1.428956e+00 4.796722e+01 5.330000e+00
      vertex   1.557434e+00 4.776730e+01 5.330000e+00
    endloop
  endfacet
  facet normal 7.237340e-01 6.900790e-01 -0.000000e+00
    outer loop
      vertex   1.557434e+00 4.776730e+01 4.530000e+00
      vertex   1.557434e+00 4.776730e+01 5.330000e+00
      vertex   1.721424e+00 4.759531e+01 4.530000e+00
    endloop
  endfacet
  facet normal 7.237340e-01 6.900790e-01 -0.000000e+00
    outer loop
      vertex   1.721424e+00 4.759531e+01 4.530000e+00
      vertex   1.557434e+00 4.776730e+01 5.330000e+00
      vertex   1.721424e+00 4.759531e+01 5.330000e+00
    endloop
  endfacet
  facet normal 5.800569e-01 8.145760e-01 -0.000000e+00
    outer loop
      vertex   1.721424e+00 4.759531e+01 4.530000e+00
      vertex   1.721424e+00 4.759531e+01 5.330000e+00
      vertex   1.915000e+00 4.745747e+01 4.530000e+00
    endloop
  endfacet
  facet normal 5.800569e-01 8.145760e-01 -3.219963e-16
    outer loop
      vertex   1.915000e+00 4.745747e+01 4.530000e+00
      vertex   1.721424e+00 4.759531e+01 5.330000e+00
      vertex   1.915000e+00 4.745747e+01 5.330000e+00
    endloop
  endfacet
  facet normal 4.154150e-01 9.096320e-01 -2.306017e-16
    outer loop
      vertex   1.915000e+00 4.745747e+01 4.530000e+00
      vertex   1.915000e+00 4.745747e+01 5.330000e+00
      vertex   2.131165e+00 4.735875e+01 4.530000e+00
    endloop
  endfacet
  facet normal 4.154150e-01 9.096320e-01 -0.000000e+00
    outer loop
      vertex   2.131165e+00 4.735875e+01 4.530000e+00
      vertex   1.915000e+00 4.745747e+01 5.330000e+00
      vertex   2.131165e+00 4.735875e+01 5.330000e+00
    endloop
  endfacet
  facet normal 2.357589e-01 9.718116e-01 -0.000000e+00
    outer loop
      vertex   2.131165e+00 4.735875e+01 4.530000e+00
      vertex   2.131165e+00 4.735875e+01 5.330000e+00
      vertex   2.362106e+00 4.730272e+01 4.530000e+00
    endloop
  endfacet
  facet normal 2.357589e-01 9.718116e-01 -0.000000e+00
    outer loop
      vertex   2.362106e+00 4.730272e+01 4.530000e+00
      vertex   2.131165e+00 4.735875e+01 5.330000e+00
      vertex   2.362106e+00 4.730272e+01 5.330000e+00
    endloop
  endfacet
  facet normal 4.758192e-02 9.988673e-01 -0.000000e+00
    outer loop
      vertex   2.362106e+00 4.730272e+01 4.530000e+00
      vertex   2.362106e+00 4.730272e+01 5.330000e+00
      vertex   2.599477e+00 4.729142e+01 4.530000e+00
    endloop
  endfacet
  facet normal 4.758192e-02 9.988673e-01 -0.000000e+00
    outer loop
      vertex   2.599477e+00 4.729142e+01 4.530000e+00
      vertex   2.362106e+00 4.730272e+01 5.330000e+00
      vertex   2.599477e+00 4.729142e+01 5.330000e+00
    endloop
  endfacet
  facet normal -1.423148e-01 9.898214e-01 0.000000e+00
    outer loop
      vertex   2.599477e+00 4.729142e+01 4.530000e+00
      vertex   2.599477e+00 4.729142e+01 5.330000e+00
      vertex   2.834699e+00 4.732524e+01 4.530000e+00
    endloop
  endfacet
  facet normal -1.423148e-01 9.898214e-01 7.900061e-17
    outer loop
      vertex   2.834699e+00 4.732524e+01 4.530000e+00
      vertex   2.599477e+00 4.729142e+01 5.330000e+00
      vertex   2.834699e+00 4.732524e+01 5.330000e+00
    endloop
  endfacet
  facet normal -3.270680e-01 9.450008e-01 1.815592e-16
    outer loop
      vertex   2.834699e+00 4.732524e+01 4.530000e+00
      vertex   2.834699e+00 4.732524e+01 5.330000e+00
      vertex   3.059269e+00 4.740296e+01 4.530000e+00
    endloop
  endfacet
  facet normal -3.270680e-01 9.450008e-01 3.631184e-16
    outer loop
      vertex   3.059269e+00 4.740296e+01 4.530000e+00
      vertex   2.834699e+00 4.732524e+01 5.330000e+00
      vertex   3.059269e+00 4.740296e+01 5.330000e+00
    endloop
  endfacet
  facet normal -5.000000e-01 8.660254e-01 5.551115e-16
    outer loop
      vertex   3.059269e+00 4.740296e+01 4.530000e+00
      vertex   3.059269e+00 4.740296e+01 5.330000e+00
      vertex   3.265071e+00 4.752178e+01 4.530000e+00
    endloop
  endfacet
  facet normal -5.000000e-01 8.660254e-01 0.000000e+00
    outer loop
      vertex   3.265071e+00 4.752178e+01 4.530000e+00
      vertex   3.059269e+00 4.740296e+01 5.330000e+00
      vertex   3.265071e+00 4.752178e+01 5.330000e+00
    endloop
  endfacet
  facet normal -6.548607e-01 7.557496e-01 0.000000e+00
    outer loop
      vertex   3.265071e+00 4.752178e+01 4.530000e+00
      vertex   3.265071e+00 4.752178e+01 5.330000e+00
      vertex   3.444668e+00 4.767740e+01 4.530000e+00
    endloop
  endfacet
  facet normal -6.548607e-01 7.557496e-01 0.000000e+00
    outer loop
      vertex   3.444668e+00 4.767740e+01 4.530000e+00
      vertex   3.265071e+00 4.752178e+01 5.330000e+00
      vertex   3.444668e+00 4.767740e+01 5.330000e+00
    endloop
  endfacet
  facet normal -7.860531e-01 6.181590e-01 0.000000e+00
    outer loop
      vertex   3.444668e+00 4.767740e+01 4.530000e+00
      vertex   3.444668e+00 4.767740e+01 5.330000e+00
      vertex   3.591567e+00 4.786420e+01 4.530000e+00
    endloop
  endfacet
  facet normal -7.860531e-01 6.181590e-01 0.000000e+00
    outer loop
      vertex   3.591567e+00 4.786420e+01 4.530000e+00
      vertex   3.444668e+00 4.767740e+01 5.330000e+00
      vertex   3.591567e+00 4.786420e+01 5.330000e+00
    endloop
  endfacet
  facet normal -8.888354e-01 4.582265e-01 0.000000e+00
    outer loop
      vertex   3.591567e+00 4.786420e+01 4.530000e+00
      vertex   3.591567e+00 4.786420e+01 5.330000e+00
      vertex   3.700460e+00 4.807542e+01 4.530000e+00
    endloop
  endfacet
  facet normal -8.888354e-01 4.582265e-01 0.000000e+00
    outer loop
      vertex   3.700460e+00 4.807542e+01 4.530000e+00
      vertex   3.591567e+00 4.786420e+01 5.330000e+00
      vertex   3.700460e+00 4.807542e+01 5.330000e+00
    endloop
  endfacet
  facet normal -9.594930e-01 2.817326e-01 0.000000e+00
    outer loop
      vertex   3.700460e+00 4.807542e+01 4.530000e+00
      vertex   3.700460e+00 4.807542e+01 5.330000e+00
      vertex   3.767411e+00 4.830344e+01 4.530000e+00
    endloop
  endfacet
  facet normal -9.594930e-01 2.817326e-01 0.000000e+00
    outer loop
      vertex   3.767411e+00 4.830344e+01 4.530000e+00
      vertex   3.700460e+00 4.807542e+01 5.330000e+00
      vertex   3.767411e+00 4.830344e+01 5.330000e+00
    endloop
  endfacet
  facet normal -9.954719e-01 9.505604e-02 0.000000e+00
    outer loop
      vertex   2.408741e+01 4.830344e+01 4.530000e+00
      vertex   2.408741e+01 4.830344e+01 5.330000e+00
      vertex   2.411000e+01 4.854000e+01 4.530000e+00
    endloop
  endfacet
  facet normal -9.954719e-01 9.505604e-02 0.000000e+00
    outer loop
      vertex   2.411000e+01 4.854000e+01 4.530000e+00
      vertex   2.408741e+01 4.830344e+01 5.330000e+00
      vertex   2.411000e+01 4.854000e+01 5.330000e+00
    endloop
  endfacet
  facet normal -9.954719e-01 -9.505604e-02 0.000000e+00
    outer loop
      vertex   2.411000e+01 4.854000e+01 4.530000e+00
      vertex   2.411000e+01 4.854000e+01 5.330000e+00
      vertex   2.408741e+01 4.877656e+01 4.530000e+00
    endloop
  endfacet
  facet normal -9.954719e-01 -9.505604e-02 0.000000e+00
    outer loop
      vertex   2.408741e+01 4.877656e+01 4.530000e+00
      vertex   2.411000e+01 4.854000e+01 5.330000e+00
      vertex   2.408741e+01 4.877656e+01 5.330000e+00
    endloop
  endfacet
  facet normal -9.594930e-01 -2.817326e-01 0.000000e+00
    outer loop
      vertex   2.408741e+01 4.877656e+01 4.530000e+00
      vertex   2.408741e+01 4.877656e+01 5.330000e+00
      vertex   2.402046e+01 4.900458e+01 4.530000e+00
    endloop
  endfacet
  facet normal -9.594930e-01 -2.817326e-01 0.000000e+00
    outer loop
      vertex   2.402046e+01 4.900458e+01 4.530000e+00
      vertex   2.408741e+01 4.877656e+01 5.330000e+00
      vertex   2.402046e+01 4.900458e+01 5.330000e+00
    endloop
  endfacet
  facet normal -8.888354e-01 -4.582265e-01 0.000000e+00
    outer loop
      vertex   2.402046e+01 4.900458e+01 4.530000e+00
      vertex   2.402046e+01 4.900458e+01 5.330000e+00
      vertex   2.391157e+01 4.921580e+01 4.530000e+00
    endloop
  endfacet
  facet normal -8.888354e-01 -4.582265e-01 0.000000e+00
    outer loop
      vertex   2.391157e+01 4.921580e+01 4.530000e+00
      vertex   2.402046e+01 4.900458e+01 5.330000e+00
      vertex   2.391157e+01 4.921580e+01 5.330000e+00
    endloop
  endfacet
  facet normal -7.860531e-01 -6.181590e-01 0.000000e+00
    outer loop
      vertex   2.391157e+01 4.921580e+01 4.530000e+00
      vertex   2.391157e+01 4.921580e+01 5.330000e+00
      vertex   2.376467e+01 4.940260e+01 4.530000e+00
    endloop
  endfacet
  facet normal -7.860531e-01 -6.181590e-01 0.000000e+00
    outer loop
      vertex   2.376467e+01 4.940260e+01 4.530000e+00
      vertex   2.391157e+01 4.921580e+01 5.330000e+00
      vertex   2.376467e+01 4.940260e+01 5.330000e+00
    endloop
  endfacet
  facet normal -6.548607e-01 -7.557496e-01 0.000000e+00
    outer loop
      vertex   2.376467e+01 4.940260e+01 4.530000e+00
      vertex   2.376467e+01 4.940260e+01 5.330000e+00
      vertex   2.358507e+01 4.955822e+01 4.530000e+00
    endloop
  endfacet
  facet normal -6.548607e-01 -7.557496e-01 0.000000e+00
    outer loop
      vertex   2.358507e+01 4.955822e+01 4.530000e+00
      vertex   2.376467e+01 4.940260e+01 5.330000e+00
      vertex   2.358507e+01 4.955822e+01 5.330000e+00
    endloop
  endfacet
  facet normal -5.000000e-01 -8.660254e-01 0.000000e+00
    outer loop
      vertex   2.358507e+01 4.955822e+01 4.530000e+00
      vertex   2.358507e+01 4.955822e+01 5.330000e+00
      vertex   2.337927e+01 4.967704e+01 4.530000e+00
    endloop
  endfacet
  facet normal -5.000000e-01 -8.660254e-01 0.000000e+00
    outer loop
      vertex   2.337927e+01 4.967704e+01 4.530000e+00
      vertex   2.358507e+01 4.955822e+01 5.330000e+00
      vertex   2.337927e+01 4.967704e+01 5.330000e+00
    endloop
  endfacet
  facet normal -3.270680e-01 -9.450008e-01 0.000000e+00
    outer loop
      vertex   2.337927e+01 4.967704e+01 4.530000e+00
      vertex   2.337927e+01 4.967704e+01 5.330000e+00
      vertex   2.315470e+01 4.975476e+01 4.530000e+00
    endloop
  endfacet
  facet normal -3.270680e-01 -9.450008e-01 0.000000e+00
    outer loop
      vertex   2.315470e+01 4.975476e+01 4.530000e+00
      vertex   2.337927e+01 4.967704e+01 5.330000e+00
      vertex   2.315470e+01 4.975476e+01 5.330000e+00
    endloop
  endfacet
  facet normal -1.423148e-01 -9.898214e-01 0.000000e+00
    outer loop
      vertex   2.315470e+01 4.975476e+01 4.530000e+00
      vertex   2.315470e+01 4.975476e+01 5.330000e+00
      vertex   2.291948e+01 4.978858e+01 4.530000e+00
    endloop
  endfacet
  facet normal -1.423148e-01 -9.898214e-01 0.000000e+00
    outer loop
      vertex   2.291948e+01 4.978858e+01 4.530000e+00
      vertex   2.315470e+01 4.975476e+01 5.330000e+00
      vertex   2.291948e+01 4.978858e+01 5.330000e+00
    endloop
  endfacet
  facet normal 4.758192e-02 -9.988673e-01 0.000000e+00
    outer loop
      vertex   2.291948e+01 4.978858e+01 4.530000e+00
      vertex   2.291948e+01 4.978858e+01 5.330000e+00
      vertex   2.268211e+01 4.977728e+01 4.530000e+00
    endloop
  endfacet
  facet normal 4.758192e-02 -9.988673e-01 0.000000e+00
    outer loop
      vertex   2.268211e+01 4.977728e+01 4.530000e+00
      vertex   2.291948e+01 4.978858e+01 5.330000e+00
      vertex   2.268211e+01 4.977728e+01 5.330000e+00
    endloop
  endfacet
  facet normal 2.357589e-01 -9.718116e-01 0.000000e+00
    outer loop
      vertex   2.268211e+01 4.977728e+01 4.530000e+00
      vertex   2.268211e+01 4.977728e+01 5.330000e+00
      vertex   2.245117e+01 4.972125e+01 4.530000e+00
    endloop
  endfacet
  facet normal 2.357589e-01 -9.718116e-01 0.000000e+00
    outer loop
      vertex   2.245117e+01 4.972125e+01 4.530000e+00
      vertex   2.268211e+01 4.977728e+01 5.330000e+00
      vertex   2.245117e+01 4.972125e+01 5.330000e+00
    endloop
  endfacet
  facet normal 4.154150e-01 -9.096320e-01 0.000000e+00
    outer loop
      vertex   2.245117e+01 4.972125e+01 4.530000e+00
      vertex   2.245117e+01 4.972125e+01 5.330000e+00
      vertex   2.223500e+01 4.962253e+01 4.530000e+00
    endloop
  endfacet
  facet normal 4.154150e-01 -9.096320e-01 1.844813e-15
    outer loop
      vertex   2.223500e+01 4.962253e+01 4.530000e+00
      vertex   2.245117e+01 4.972125e+01 5.330000e+00
      vertex   2.223500e+01 4.962253e+01 5.330000e+00
    endloop
  endfacet
  facet normal 5.800569e-01 -8.145760e-01 2.575970e-15
    outer loop
      vertex   2.223500e+01 4.962253e+01 4.530000e+00
      vertex   2.223500e+01 4.962253e+01 5.330000e+00
      vertex   2.204142e+01 4.948469e+01 4.530000e+00
    endloop
  endfacet
  facet normal 5.800569e-01 -8.145760e-01 0.000000e+00
    outer loop
      vertex   2.204142e+01 4.948469e+01 4.530000e+00
      vertex   2.223500e+01 4.962253e+01 5.330000e+00
      vertex   2.204142e+01 4.948469e+01 5.330000e+00
    endloop
  endfacet
  facet normal 7.237340e-01 -6.900790e-01 0.000000e+00
    outer loop
      vertex   2.204142e+01 4.948469e+01 4.530000e+00
      vertex   2.204142e+01 4.948469e+01 5.330000e+00
      vertex   2.187743e+01 4.931270e+01 4.530000e+00
    endloop
  endfacet
  facet normal 7.237340e-01 -6.900790e-01 -6.129133e-15
    outer loop
      vertex   2.187743e+01 4.931270e+01 4.530000e+00
      vertex   2.204142e+01 4.948469e+01 5.330000e+00
      vertex   2.187743e+01 4.931270e+01 5.330000e+00
    endloop
  endfacet
  facet normal 8.412535e-01 -5.406408e-01 -4.801855e-15
    outer loop
      vertex   2.187743e+01 4.931270e+01 4.530000e+00
      vertex   2.187743e+01 4.931270e+01 5.330000e+00
      vertex   2.174896e+01 4.911278e+01 4.530000e+00
    endloop
  endfacet
  facet normal 8.412535e-01 -5.406408e-01 0.000000e+00
    outer loop
      vertex   2.174896e+01 4.911278e+01 4.530000e+00
      vertex   2.187743e+01 4.931270e+01 5.330000e+00
      vertex   2.174896e+01 4.911278e+01 5.330000e+00
    endloop
  endfacet
  facet normal 9.283679e-01 -3.716625e-01 0.000000e+00
    outer loop
      vertex   2.174896e+01 4.911278e+01 4.530000e+00
      vertex   2.174896e+01 4.911278e+01 5.330000e+00
      vertex   2.166063e+01 4.889217e+01 4.530000e+00
    endloop
  endfacet
  facet normal 9.283679e-01 -3.716625e-01 0.000000e+00
    outer loop
      vertex   2.166063e+01 4.889217e+01 4.530000e+00
      vertex   2.174896e+01 4.911278e+01 5.330000e+00
      vertex   2.166063e+01 4.889217e+01 5.330000e+00
    endloop
  endfacet
  facet normal 9.819287e-01 -1.892512e-01 0.000000e+00
    outer loop
      vertex   2.166063e+01 4.889217e+01 4.530000e+00
      vertex   2.166063e+01 4.889217e+01 5.330000e+00
      vertex   2.161566e+01 4.865882e+01 4.530000e+00
    endloop
  endfacet
  facet normal 9.819287e-01 -1.892512e-01 0.000000e+00
    outer loop
      vertex   2.161566e+01 4.865882e+01 4.530000e+00
      vertex   2.166063e+01 4.889217e+01 5.330000e+00
      vertex   2.161566e+01 4.865882e+01 5.330000e+00
    endloop
  endfacet
  facet normal 1.000000e+00 0.000000e+00 -0.000000e+00
    outer loop
      vertex   2.161566e+01 4.865882e+01 4.530000e+00
      vertex   2.161566e+01 4.865882e+01 5.330000e+00
      vertex   2.161566e+01 4.842118e+01 4.530000e+00
    endloop
  endfacet
  facet normal 1.000000e+00 0.000000e+00 0.000000e+00
    outer loop
      vertex   2.161566e+01 4.842118e+01 4.530000e+00
      vertex   2.161566e+01 4.865882e+01 5.330000e+00
      vertex   2.161566e+01 4.842118e+01 5.330000e+00
    endloop
  endfacet
  facet normal 9.819287e-01 1.892512e-01 -0.000000e+00
    outer loop
      vertex   2.161566e+01 4.842118e+01 4.530000e+00
      vertex   2.161566e+01 4.842118e+01 5.330000e+00
      vertex   2.166063e+01 4.818783e+01 4.530000e+00
    endloop
  endfacet
  facet normal 9.819287e-01 1.892512e-01 -0.000000e+00
    outer loop
      vertex   2.166063e+01 4.818783e+01 4.530000e+00
      vertex   2.161566e+01 4.842118e+01 5.330000e+00
      vertex   2.166063e+01 4.818783e+01 5.330000e+00
    endloop
  endfacet
  facet normal 9.283679e-01 3.716625e-01 -0.000000e+00
    outer loop
      vertex   2.166063e+01 4.818783e+01 4.530000e+00
      vertex   2.166063e+01 4.818783e+01 5.330000e+00
      vertex   2.174896e+01 4.796722e+01 4.530000e+00
    endloop
  endfacet
  facet normal 9.283679e-01 3.716625e-01 -0.000000e+00
    outer loop
      vertex   2.174896e+01 4.796722e+01 4.530000e+00
      vertex   2.166063e+01 4.818783e+01 5.330000e+00
      vertex   2.174896e+01 4.796722e+01 5.330000e+00
    endloop
  endfacet
  facet normal 8.412535e-01 5.406408e-01 -0.000000e+00
    outer loop
      vertex   2.174896e+01 4.796722e+01 4.530000e+00
      vertex   2.174896e+01 4.796722e+01 5.330000e+00
      vertex   2.187743e+01 4.776730e+01 4.530000e+00
    endloop
  endfacet
  facet normal 8.412535e-01 5.406408e-01 9.603710e-15
    outer loop
      vertex   2.187743e+01 4.776730e+01 4.530000e+00
      vertex   2.174896e+01 4.796722e+01 5.330000e+00
      vertex   2.187743e+01 4.776730e+01 5.330000e+00
    endloop
  endfacet
  facet normal 7.237340e-01 6.900790e-01 1.225827e-14
    outer loop
      vertex   2.187743e+01 4.776730e+01 4.530000e+00
      vertex   2.187743e+01 4.776730e+01 5.330000e+00
      vertex   2.204142e+01 4.759531e+01 4.530000e+00
    endloop
  endfacet
  facet normal 7.237340e-01 6.900790e-01 -0.000000e+00
    outer loop
      vertex   2.204142e+01 4.759531e+01 4.530000e+00
      vertex   2.187743e+01 4.776730e+01 5.330000e+00
      vertex   2.204142e+01 4.759531e+01 5.330000e+00
    endloop
  endfacet
  facet normal 5.800569e-01 8.145760e-01 -0.000000e+00
    outer loop
      vertex   2.204142e+01 4.759531e+01 4.530000e+00
      vertex   2.204142e+01 4.759531e+01 5.330000e+00
      vertex   2.223500e+01 4.745747e+01 4.530000e+00
    endloop
  endfacet
  facet normal 5.800569e-01 8.145760e-01 -2.575970e-15
    outer loop
      vertex   2.223500e+01 4.745747e+01 4.530000e+00
      vertex   2.204142e+01 4.759531e+01 5.330000e+00
      vertex   2.223500e+01 4.745747e+01 5.330000e+00
    endloop
  endfacet
  facet normal 4.154150e-01 9.096320e-01 -1.844813e-15
    outer loop
      vertex   2.223500e+01 4.745747e+01 4.530000e+00
      vertex   2.223500e+01 4.745747e+01 5.330000e+00
      vertex   2.245117e+01 4.735875e+01 4.530000e+00
    endloop
  endfacet
  facet normal 4.154150e-01 9.096320e-01 -0.000000e+00
    outer loop
      vertex   2.245117e+01 4.735875e+01 4.530000e+00
      vertex   2.223500e+01 4.745747e+01 5.330000e+00
      vertex   2.245117e+01 4.735875e+01 5.330000e+00
    endloop
  endfacet
  facet normal 2.357589e-01 9.718116e-01 -0.000000e+00
    outer loop
      vertex   2.245117e+01 4.735875e+01 4.530000e+00
      vertex   2.245117e+01 4.735875e+01 5.330000e+00
      vertex   2.268211e+01 4.730272e+01 4.530000e+00
    endloop
  endfacet
  facet normal 2.357589e-01 9.718116e-01 -0.000000e+00
    outer loop
      vertex   2.268211e+01 4.730272e+01 4.530000e+00
      vertex   2.245117e+01 4.735875e+01 5.330000e+00
      vertex   2.268211e+01 4.730272e+01 5.330000e+00
    endloop
  endfacet
  facet normal 4.758192e-02 9.988673e-01 -0.000000e+00
    outer loop
      vertex   2.268211e+01 4.730272e+01 4.530000e+00
      vertex   2.268211e+01 4.730272e+01 5.330000e+00
      vertex   2.291948e+01 4.729142e+01 4.530000e+00
    endloop
  endfacet
  facet normal 4.758192e-02 9.988673e-01 -0.000000e+00
    outer loop
      vertex   2.291948e+01 4.729142e+01 4.530000e+00
      vertex   2.268211e+01 4.730272e+01 5.330000e+00
      vertex   2.291948e+01 4.729142e+01 5.330000e+00
    endloop
  endfacet
  facet normal -1.423148e-01 9.898214e-01 0.000000e+00
    outer loop
      vertex   2.291948e+01 4.729142e+01 4.530000e+00
      vertex   2.291948e+01 4.729142e+01 5.330000e+00
      vertex   2.315470e+01 4.732524e+01 4.530000e+00
    endloop
  endfacet
  facet normal -1.423148e-01 9.898214e-01 0.000000e+00
    outer loop
      vertex   2.315470e+01 4.732524e+01 4.530000e+00
      vertex   2.291948e+01 4.729142e+01 5.330000e+00
      vertex   2.315470e+01 4.732524e+01 5.330000e+00
    endloop
  endfacet
  facet normal -3.270680e-01 9.450008e-01 0.000000e+00
    outer loop
      vertex   2.315470e+01 4.732524e+01 4.530000e+00
      vertex   2.315470e+01 4.732524e+01 5.330000e+00
      vertex   2.337927e+01 4.740296e+01 4.530000e+00
    endloop
  endfacet
  facet normal -3.270680e-01 9.450008e-01 0.000000e+00
    outer loop
      vertex   2.337927e+01 4.740296e+01 4.530000e+00
      vertex   2.315470e+01 4.732524e+01 5.330000e+00
      vertex   2.337927e+01 4.740296e+01 5.330000e+00
    endloop
  endfacet
  facet normal -5.000000e-01 8.660254e-01 0.000000e+00
    outer loop
      vertex   2.337927e+01 4.740296e+01 4.530000e+00
      vertex   2.337927e+01 4.740296e+01 5.330000e+00
      vertex   2.358507e+01 4.752178e+01 4.530000e+00
    endloop
  endfacet
  facet normal -5.000000e-01 8.660254e-01 0.000000e+00
    outer loop
      vertex   2.358507e+01 4.752178e+01 4.530000e+00
      vertex   2.337927e+01 4.740296e+01 5.330000e+00
      vertex   2.358507e+01 4.752178e+01 5.330000e+00
    endloop
  endfacet
  facet normal -6.548607e-01 7.557496e-01 0.000000e+00
    outer loop
      vertex   2.358507e+01 4.752178e+01 4.530000e+00
      vertex   2.358507e+01 4.752178e+01 5.330000e+00
      vertex   2.376467e+01 4.767740e+01 4.530000e+00
    endloop
  endfacet
  facet normal -6.548607e-01 7.557496e-01 0.000000e+00
    outer loop
      vertex   2.376467e+01 4.767740e+01 4.530000e+00
      vertex   2.358507e+01 4.752178e+01 5.330000e+00
      vertex   2.376467e+01 4.767740e+01 5.330000e+00
    endloop
  endfacet
  facet normal -7.860531e-01 6.181590e-01 0.000000e+00
    outer loop
      vertex   2.376467e+01 4.767740e+01 4.530000e+00
      vertex   2.376467e+01 4.767740e+01 5.330000e+00
      vertex   2.391157e+01 4.786420e+01 4.530000e+00
    endloop
  endfacet
  facet normal -7.860531e-01 6.181590e-01 0.000000e+00
    outer loop
      vertex   2.391157e+01 4.786420e+01 4.530000e+00
      vertex   2.376467e+01 4.767740e+01 5.330000e+00
      vertex   2.391157e+01 4.786420e+01 5.330000e+00
    endloop
  endfacet
  facet normal -8.888354e-01 4.582265e-01 0.000000e+00
    outer loop
      vertex   2.391157e+01 4.786420e+01 4.530000e+00
      vertex   2.391157e+01 4.786420e+01 5.330000e+00
      vertex   2.402046e+01 4.807542e+01 4.530000e+00
    endloop
  endfacet
  facet normal -8.888354e-01 4.582265e-01 0.000000e+00
    outer loop
      vertex   2.402046e+01 4.807542e+01 4.530000e+00
      vertex   2.391157e+01 4.786420e+01 5.330000e+00
      vertex   2.402046e+01 4.807542e+01 5.330000e+00
    endloop
  endfacet
  facet normal -9.594930e-01 2.817326e-01 0.000000e+00
    outer loop
      vertex   2.402046e+01 4.807542e+01 4.530000e+00
      vertex   2.402046e+01 4.807542e+01 5.330000e+00
      vertex   2.408741e+01 4.830344e+01 4.530000e+00
    endloop
  endfacet
  facet normal -9.594930e-01 2.817326e-01 0.000000e+00
    outer loop
      vertex   2.408741e+01 4.830344e+01 4.530000e+00
      vertex   2.402046e+01 4.807542e+01 5.330000e+00
      vertex   2.408741e+01 4.830344e+01 5.330000e+00
    endloop
  endfacet
  facet normal 0.000000e+00 0.000000e+00 -1.000000e+00
    outer loop
      vertex   2.670000e+01 5.659000e+01 1.630000e+00
      vertex   2.670000e+01 6.308000e+01 1.630000e+00
      vertex   2.750000e+01 5.659000e+01 1.630000e+00
    endloop
  endfacet
  facet normal 0.000000e+00 0.000000e+00 -1.000000e+00
    outer loop
      vertex   2.750000e+01 5.659000e+01 1.630000e+00
      vertex   2.670000e+01 6.308000e+01 1.630000e+00
      vertex   2.750000e+01 6.388000e+01 1.630000e+00
    endloop
  endfacet
  facet normal 0.000000e+00 0.000000e+00 -1.000000e+00
    outer loop
      vertex   2.750000e+01 6.388000e+01 1.630000e+00
      vertex   2.670000e+01 6.308000e+01 1.630000e+00
      vertex   -1.300000e+00 6.308000e+01 1.630000e+00
    endloop
  endfacet
  facet normal -0.000000e+00 0.000000e+00 -1.000000e+00
    outer loop
      vertex   2.750000e+01 6.388000e+01 1.630000e+00
      vertex   -1.300000e+00 6.308000e+01 1.630000e+00
      vertex   -2.100000e+00 6.388000e+01 1.630000e+00
    endloop
  endfacet
  facet normal 0.000000e+00 0.000000e+00 -1.000000e+00
    outer loop
      vertex   -2.100000e+00 6.388000e+01 1.630000e+00
      vertex   -1.300000e+00 6.308000e+01 1.630000e+00
      vertex   -2.100000e+00 5.659000e+01 1.630000e+00
    endloop
  endfacet
  facet normal 0.000000e+00 0.000000e+00 -1.000000e+00
    outer loop
      vertex   -2.100000e+00 5.659000e+01 1.630000e+00
      vertex   -1.300000e+00 6.308000e+01 1.630000e+00
      vertex   -1.300000e+00 5.659000e+01 1.630000e+00
    endloop
  endfacet
  facet normal -1.000000e+00 -6.091756e-17 -9.184872e-23
    outer loop
      vertex   -2.100000e+00 5.659000e+01 3.430000e+00
      vertex   -2.100000e+00 6.388000e+01 3.430000e+00
      vertex   -2.100000e+00 5.659000e+01 1.630000e+00
    endloop
  endfacet
  facet normal -1.000000e+00 0.000000e+00 -2.467162e-16
    outer loop
      vertex   -2.100000e+00 5.659000e+01 1.630000e+00
      vertex   -2.100000e+00 6.388000e+01 3.430000e+00
      vertex   -2.100000e+00 6.388000e+01 1.630000e+00
    endloop
  endfacet
  facet normal -1.000000e+00 6.091756e-17 9.184871e-23
    outer loop
      vertex   -2.100000e+00 5.319000e+01 1.630000e+00
      vertex   -2.100000e+00 4.590000e+01 1.630000e+00
      vertex   -2.100000e+00 5.319000e+01 3.430000e+00
    endloop
  endfacet
  facet normal -1.000000e+00 0.000000e+00 2.467162e-16
    outer loop
      vertex   -2.100000e+00 5.319000e+01 3.430000e+00
      vertex   -2.100000e+00 4.590000e+01 1.630000e+00
      vertex   -2.100000e+00 4.590000e+01 3.430000e+00
    endloop
  endfacet
  facet normal 0.000000e+00 1.000000e+00 -0.000000e+00
    outer loop
      vertex   2.670000e+01 4.670000e+01 1.630000e+00
      vertex   -1.300000e+00 4.670000e+01 1.630000e+00
      vertex   2.670000e+01 4.670000e+01 4.530000e+00
    endloop
  endfacet
  facet normal 0.000000e+00 1.000000e+00 0.000000e+00
    outer loop
      vertex   2.670000e+01 4.670000e+01 4.530000e+00
      vertex   -1.300000e+00 4.670000e+01 1.630000e+00
      vertex   -1.300000e+00 4.670000e+01 4.530000e+00
    endloop
  endfacet
  facet normal -1.000000e+00 0.000000e+00 0.000000e+00
    outer loop
      vertex   2.670000e+01 5.319000e+01 1.630000e+00
      vertex   2.670000e+01 4.670000e+01 1.630000e+00
      vertex   2.670000e+01 5.319000e+01 3.880000e+00
    endloop
  endfacet
  facet normal -1.000000e+00 -0.000000e+00 0.000000e+00
    outer loop
      vertex   2.670000e+01 5.319000e+01 3.880000e+00
      vertex   2.670000e+01 4.670000e+01 1.630000e+00
      vertex   2.670000e+01 4.670000e+01 4.530000e+00
    endloop
  endfacet
  facet normal -1.000000e+00 0.000000e+00 0.000000e+00
    outer loop
      vertex   2.670000e+01 5.319000e+01 3.880000e+00
      vertex   2.670000e+01 4.670000e+01 4.530000e+00
      vertex   2.670000e+01 5.659000e+01 3.880000e+00
    endloop
  endfacet
  facet normal -1.000000e+00 0.000000e+00 0.000000e+00
    outer loop
      vertex   2.670000e+01 5.659000e+01 3.880000e+00
      vertex   2.670000e+01 4.670000e+01 4.530000e+00
      vertex   2.670000e+01 6.308000e+01 4.530000e+00
    endloop
  endfacet
  facet normal -1.000000e+00 0.000000e+00 0.000000e+00
    outer loop
      vertex   2.670000e+01 5.659000e+01 3.880000e+00
      vertex   2.670000e+01 6.308000e+01 4.530000e+00
      vertex   2.670000e+01 6.308000e+01 1.630000e+00
    endloop
  endfacet
  facet normal -1.000000e+00 0.000000e+00 0.000000e+00
    outer loop
      vertex   2.670000e+01 6.308000e+01 1.630000e+00
      vertex   2.670000e+01 5.659000e+01 1.630000e+00
      vertex   2.670000e+01 5.659000e+01 3.880000e+00
    endloop
  endfacet
  facet normal -0.000000e+00 -1.000000e+00 -0.000000e+00
    outer loop
      vertex   2.750000e+01 4.590000e+01 3.430000e+00
      vertex   -2.100000e+00 4.590000e+01 3.430000e+00
      vertex   2.750000e+01 4.590000e+01 1.630000e+00
    endloop
  endfacet
  facet normal 0.000000e+00 -1.000000e+00 0.000000e+00
    outer loop
      vertex   2.750000e+01 4.590000e+01 1.630000e+00
      vertex   -2.100000e+00 4.590000e+01 3.430000e+00
      vertex   -2.100000e+00 4.590000e+01 1.630000e+00
    endloop
  endfacet
  facet normal -0.000000e+00 1.000000e+00 0.000000e+00
    outer loop
      vertex   -2.100000e+00 6.388000e+01 3.430000e+00
      vertex   2.750000e+01 6.388000e+01 3.430000e+00
      vertex   -2.100000e+00 6.388000e+01 1.630000e+00
    endloop
  endfacet
  facet normal 0.000000e+00 1.000000e+00 0.000000e+00
    outer loop
      vertex   -2.100000e+00 6.388000e+01 1.630000e+00
      vertex   2.750000e+01 6.388000e+01 3.430000e+00
      vertex   2.750000e+01 6.388000e+01 1.630000e+00
    endloop
  endfacet
  facet normal 0.000000e+00 -1.000000e+00 0.000000e+00
    outer loop
      vertex   -1.300000e+00 6.308000e+01 1.630000e+00
      vertex   2.670000e+01 6.308000e+01 1.630000e+00
      vertex   -1.300000e+00 6.308000e+01 4.530000e+00
    endloop
  endfacet
  facet normal 0.000000e+00 -1.000000e+00 0.000000e+00
    outer loop
      vertex   -1.300000e+00 6.308000e+01 4.530000e+00
      vertex   2.670000e+01 6.308000e+01 1.630000e+00
      vertex   2.670000e+01 6.308000e+01 4.530000e+00
    endloop
  endfacet
  facet normal 1.000000e+00 -6.842668e-17 0.000000e+00
    outer loop
      vertex   -1.300000e+00 4.670000e+01 1.630000e+00
      vertex   -1.300000e+00 5.319000e+01 3.880000e+00
      vertex   -1.300000e+00 4.670000e+01 4.530000e+00
    endloop
  endfacet
  facet normal 1.000000e+00 0.000000e+00 6.832142e-16
    outer loop
      vertex   -1.300000e+00 4.670000e+01 4.530000e+00
      vertex   -1.300000e+00 5.319000e+01 3.880000e+00
      vertex   -1.300000e+00 5.659000e+01 3.880000e+00
    endloop
  endfacet
  facet normal 1.000000e+00 -4.066750e-17 6.444245e-17
    outer loop
      vertex   -1.300000e+00 4.670000e+01 4.530000e+00
      vertex   -1.300000e+00 5.659000e+01 3.880000e+00
      vertex   -1.300000e+00 6.308000e+01 4.530000e+00
    endloop
  endfacet
  facet normal 1.000000e+00 -2.654482e-17 -7.656711e-17
    outer loop
      vertex   -1.300000e+00 6.308000e+01 4.530000e+00
      vertex   -1.300000e+00 5.659000e+01 3.880000e+00
      vertex   -1.300000e+00 6.308000e+01 1.630000e+00
    endloop
  endfacet
  facet normal 1.000000e+00 0.000000e+00 0.000000e+00
    outer loop
      vertex   -1.300000e+00 6.308000e+01 1.630000e+00
      vertex   -1.300000e+00 5.659000e+01 3.880000e+00
      vertex   -1.300000e+00 5.659000e+01 1.630000e+00
    endloop
  endfacet
  facet normal 1.000000e+00 -6.842668e-17 0.000000e+00
    outer loop
      vertex   -1.300000e+00 4.670000e+01 1.630000e+00
      vertex   -1.300000e+00 5.319000e+01 1.630000e+00
      vertex   -1.300000e+00 5.319000e+01 3.880000e+00
    endloop
  endfacet
  facet normal 0.000000e+00 0.000000e+00 -1.000000e+00
    outer loop
      vertex   -3.000000e+00 5.319000e+01 3.880000e+00
      vertex   -3.000000e+00 5.659000e+01 3.880000e+00
      vertex   -1.300000e+00 5.319000e+01 3.880000e+00
    endloop
  endfacet
  facet normal 0.000000e+00 0.000000e+00 -1.000000e+00
    outer loop
      vertex   -1.300000e+00 5.319000e+01 3.880000e+00
      vertex   -3.000000e+00 5.659000e+01 3.880000e+00
      vertex   -1.300000e+00 5.659000e+01 3.880000e+00
    endloop
  endfacet
  facet normal 0.000000e+00 0.000000e+00 -1.000000e+00
    outer loop
      vertex   3.767411e+00 4.877656e+01 4.530000e+00
      vertex   2.161566e+01 4.865882e+01 4.530000e+00
      vertex   3.790000e+00 4.854000e+01 4.530000e+00
    endloop
  endfacet
  facet normal 0.000000e+00 0.000000e+00 -1.000000e+00
    outer loop
      vertex   3.790000e+00 4.854000e+01 4.530000e+00
      vertex   2.161566e+01 4.865882e+01 4.530000e+00
      vertex   2.161566e+01 4.842118e+01 4.530000e+00
    endloop
  endfacet
  facet normal 0.000000e+00 -0.000000e+00 -1.000000e+00
    outer loop
      vertex   3.790000e+00 4.854000e+01 4.530000e+00
      vertex   2.161566e+01 4.842118e+01 4.530000e+00
      vertex   3.767411e+00 4.830344e+01 4.530000e+00
    endloop
  endfacet
  facet normal 0.000000e+00 0.000000e+00 -1.000000e+00
    outer loop
      vertex   3.767411e+00 4.830344e+01 4.530000e+00
      vertex   2.161566e+01 4.842118e+01 4.530000e+00
      vertex   2.166063e+01 4.818783e+01 4.530000e+00
    endloop
  endfacet
  facet normal 0.000000e+00 -0.000000e+00 -1.000000e+00
    outer loop
      vertex   3.767411e+00 4.830344e+01 4.530000e+00
      vertex   2.166063e+01 4.818783e+01 4.530000e+00
      vertex   3.700460e+00 4.807542e+01 4.530000e+00
    endloop
  endfacet
  facet normal 0.000000e+00 0.000000e+00 -1.000000e+00
    outer loop
      vertex   3.700460e+00 4.807542e+01 4.530000e+00
      vertex   2.166063e+01 4.818783e+01 4.530000e+00
      vertex   2.174896e+01 4.796722e+01 4.530000e+00
    endloop
  endfacet
  facet normal 0.000000e+00 -0.000000e+00 -1.000000e+00
    outer loop
      vertex   3.700460e+00 4.807542e+01 4.530000e+00
      vertex   2.174896e+01 4.796722e+01 4.530000e+00
      vertex   3.591567e+00 4.786420e+01 4.530000e+00
    endloop
  endfacet
  facet normal 0.000000e+00 0.000000e+00 -1.000000e+00
    outer loop
      vertex   3.591567e+00 4.786420e+01 4.530000e+00
      vertex   2.174896e+01 4.796722e+01 4.530000e+00
      vertex   2.187743e+01 4.776730e+01 4.530000e+00
    endloop
  endfacet
  facet normal 0.000000e+00 -0.000000e+00 -1.000000e+00
    outer loop
      vertex   3.591567e+00 4.786420e+01 4.530000e+00
      vertex   2.187743e+01 4.776730e+01 4.530000e+00
      vertex   3.444668e+00 4.767740e+01 4.530000e+00
    endloop
  endfacet
  facet normal 0.000000e+00 0.000000e+00 -1.000000e+00
    outer loop
      vertex   3.444668e+00 4.767740e+01 4.530000e+00
      vertex   2.187743e+01 4.776730e+01 4.530000e+00
      vertex   2.204142e+01 4.759531e+01 4.530000e+00
    endloop
  endfacet
  facet normal 0.000000e+00 -0.000000e+00 -1.000000e+00
    outer loop
      vertex   3.444668e+00 4.767740e+01 4.530000e+00
      vertex   2.204142e+01 4.759531e+01 4.530000e+00
      vertex   3.265071e+00 4.752178e+01 4.530000e+00
    endloop
  endfacet
  facet normal 0.000000e+00 0.000000e+00 -1.000000e+00
    outer loop
      vertex   3.265071e+00 4.752178e+01 4.530000e+00
      vertex   2.204142e+01 4.759531e+01 4.530000e+00
      vertex   2.223500e+01 4.745747e+01 4.530000e+00
    endloop
  endfacet
  facet normal 0.000000e+00 -0.000000e+00 -1.000000e+00
    outer loop
      vertex   3.265071e+00 4.752178e+01 4.530000e+00
      vertex   2.223500e+01 4.745747e+01 4.530000e+00
      vertex   3.059269e+00 4.740296e+01 4.530000e+00
    endloop
  endfacet
  facet normal 0.000000e+00 0.000000e+00 -1.000000e+00
    outer loop
      vertex   3.059269e+00 4.740296e+01 4.530000e+00
      vertex   2.223500e+01 4.745747e+01 4.530000e+00
      vertex   2.245117e+01 4.735875e+01 4.530000e+00
    endloop
  endfacet
  facet normal 0.000000e+00 -0.000000e+00 -1.000000e+00
    outer loop
      vertex   3.059269e+00 4.740296e+01 4.530000e+00
      vertex   2.245117e+01 4.735875e+01 4.530000e+00
      vertex   2.834699e+00 4.732524e+01 4.530000e+00
    endloop
  endfacet
  facet normal 0.000000e+00 0.000000e+00 -1.000000e+00
    outer loop
      vertex   2.834699e+00 4.732524e+01 4.530000e+00
      vertex   2.245117e+01 4.735875e+01 4.530000e+00
      vertex   2.268211e+01 4.730272e+01 4.530000e+00
    endloop
  endfacet
  facet normal 0.000000e+00 -0.000000e+00 -1.000000e+00
    outer loop
      vertex   2.834699e+00 4.732524e+01 4.530000e+00
      vertex   2.268211e+01 4.730272e+01 4.530000e+00
      vertex   2.599477e+00 4.729142e+01 4.530000e+00
    endloop
  endfacet
  facet normal 0.000000e+00 0.000000e+00 -1.000000e+00
    outer loop
      vertex   2.599477e+00 4.729142e+01 4.530000e+00
      vertex   2.268211e+01 4.730272e+01 4.530000e+00
      vertex   2.670000e+01 4.670000e+01 4.530000e+00
    endloop
  endfacet
  facet normal 0.000000e+00 -0.000000e+00 -1.000000e+00
    outer loop
      vertex   2.599477e+00 4.729142e+01 4.530000e+00
      vertex   2.670000e+01 4.670000e+01 4.530000e+00
      vertex   -1.300000e+00 4.670000e+01 4.530000e+00
    endloop
  endfacet
  facet normal 0.000000e+00 0.000000e+00 -1.000000e+00
    outer loop
      vertex   2.161566e+01 4.865882e+01 4.530000e+00
      vertex   3.767411e+00 4.877656e+01 4.530000e+00
      vertex   2.166063e+01 4.889217e+01 4.530000e+00
    endloop
  endfacet
  facet normal -0.000000e+00 0.000000e+00 -1.000000e+00
    outer loop
      vertex   2.166063e+01 4.889217e+01 4.530000e+00
      vertex   3.767411e+00 4.877656e+01 4.530000e+00
      vertex   3.700460e+00 4.900458e+01 4.530000e+00
    endloop
  endfacet
  facet normal 0.000000e+00 0.000000e+00 -1.000000e+00
    outer loop
      vertex   2.166063e+01 4.889217e+01 4.530000e+00
      vertex   3.700460e+00 4.900458e+01 4.530000e+00
      vertex   2.174896e+01 4.911278e+01 4.530000e+00
    endloop
  endfacet
  facet normal -0.000000e+00 0.000000e+00 -1.000000e+00
    outer loop
      vertex   2.174896e+01 4.911278e+01 4.530000e+00
      vertex   3.700460e+00 4.900458e+01 4.530000e+00
      vertex   3.591567e+00 4.921580e+01 4.530000e+00
    endloop
  endfacet
  facet normal 0.000000e+00 0.000000e+00 -1.000000e+00
    outer loop
      vertex   2.174896e+01 4.911278e+01 4.530000e+00
      vertex   3.591567e+00 4.921580e+01 4.530000e+00
      vertex   2.187743e+01 4.931270e+01 4.530000e+00
    endloop
  endfacet
  facet normal -0.000000e+00 0.000000e+00 -1.000000e+00
    outer loop
      vertex   2.187743e+01 4.931270e+01 4.530000e+00
      vertex   3.591567e+00 4.921580e+01 4.530000e+00
      vertex   3.444668e+00 4.940260e+01 4.530000e+00
    endloop
  endfacet
  facet normal 0.000000e+00 0.000000e+00 -1.000000e+00
    outer loop
      vertex   2.187743e+01 4.931270e+01 4.530000e+00
      vertex   3.444668e+00 4.940260e+01 4.530000e+00
      vertex   2.204142e+01 4.948469e+01 4.530000e+00
    endloop
  endfacet
  facet normal -0.000000e+00 0.000000e+00 -1.000000e+00
    outer loop
      vertex   2.204142e+01 4.948469e+01 4.530000e+00
      vertex   3.444668e+00 4.940260e+01 4.530000e+00
      vertex   3.265071e+00 4.955822e+01 4.530000e+00
    endloop
  endfacet
  facet normal 0.000000e+00 0.000000e+00 -1.000000e+00
    outer loop
      vertex   2.204142e+01 4.948469e+01 4.530000e+00
      vertex   3.265071e+00 4.955822e+01 4.530000e+00
      vertex   2.223500e+01 4.962253e+01 4.530000e+00
    endloop
  endfacet
  facet normal -0.000000e+00 0.000000e+00 -1.000000e+00
    outer loop
      vertex   2.223500e+01 4.962253e+01 4.530000e+00
      vertex   3.265071e+00 4.955822e+01 4.530000e+00
      vertex   3.059269e+00 4.967704e+01 4.530000e+00
    endloop
  endfacet
  facet normal 0.000000e+00 0.000000e+00 -1.000000e+00
    outer loop
      vertex   2.223500e+01 4.962253e+01 4.530000e+00
      vertex   3.059269e+00 4.967704e+01 4.530000e+00
      vertex   2.245117e+01 4.972125e+01 4.530000e+00
    endloop
  endfacet
  facet normal -0.000000e+00 0.000000e+00 -1.000000e+00
    outer loop
      vertex   2.245117e+01 4.972125e+01 4.530000e+00
      vertex   3.059269e+00 4.967704e+01 4.530000e+00
      vertex   -1.300000e+00 6.308000e+01 4.530000e+00
    endloop
  endfacet
  facet normal 0.000000e+00 0.000000e+00 -1.000000e+00
    outer loop
      vertex   2.245117e+01 4.972125e+01 4.530000e+00
      vertex   -1.300000e+00 6.308000e+01 4.530000e+00
      vertex   2.670000e+01 6.308000e+01 4.530000e+00
    endloop
  endfacet
  facet normal 0.000000e+00 0.000000e+00 -1.000000e+00
    outer loop
      vertex   3.059269e+00 4.967704e+01 4.530000e+00
      vertex   2.834699e+00 4.975476e+01 4.530000e+00
      vertex   -1.300000e+00 6.308000e+01 4.530000e+00
    endloop
  endfacet
  facet normal 0.000000e+00 0.000000e+00 -1.000000e+00
    outer loop
      vertex   -1.300000e+00 6.308000e+01 4.530000e+00
      vertex   2.834699e+00 4.975476e+01 4.530000e+00
      vertex   2.599477e+00 4.978858e+01 4.530000e+00
    endloop
  endfacet
  facet normal 0.000000e+00 0.000000e+00 -1.000000e+00
    outer loop
      vertex   -1.300000e+00 6.308000e+01 4.530000e+00
      vertex   2.599477e+00 4.978858e+01 4.530000e+00
      vertex   2.362106e+00 4.977728e+01 4.530000e+00
    endloop
  endfacet
  facet normal -0.000000e+00 0.000000e+00 -1.000000e+00
    outer loop
      vertex   2.362106e+00 4.977728e+01 4.530000e+00
      vertex   2.131165e+00 4.972125e+01 4.530000e+00
      vertex   -1.300000e+00 6.308000e+01 4.530000e+00
    endloop
  endfacet
  facet normal 0.000000e+00 0.000000e+00 -1.000000e+00
    outer loop
      vertex   -1.300000e+00 6.308000e+01 4.530000e+00
      vertex   2.131165e+00 4.972125e+01 4.530000e+00
      vertex   1.915000e+00 4.962253e+01 4.530000e+00
    endloop
  endfacet
  facet normal 0.000000e+00 0.000000e+00 -1.000000e+00
    outer loop
      vertex   -1.300000e+00 6.308000e+01 4.530000e+00
      vertex   1.915000e+00 4.962253e+01 4.530000e+00
      vertex   1.721424e+00 4.948469e+01 4.530000e+00
    endloop
  endfacet
  facet normal -0.000000e+00 0.000000e+00 -1.000000e+00
    outer loop
      vertex   1.721424e+00 4.948469e+01 4.530000e+00
      vertex   1.557434e+00 4.931270e+01 4.530000e+00
      vertex   -1.300000e+00 6.308000e+01 4.530000e+00
    endloop
  endfacet
  facet normal 0.000000e+00 -0.000000e+00 -1.000000e+00
    outer loop
      vertex   -1.300000e+00 6.308000e+01 4.530000e+00
      vertex   1.557434e+00 4.931270e+01 4.530000e+00
      vertex   -1.300000e+00 4.670000e+01 4.530000e+00
    endloop
  endfacet
  facet normal 0.000000e+00 0.000000e+00 -1.000000e+00
    outer loop
      vertex   -1.300000e+00 4.670000e+01 4.530000e+00
      vertex   1.557434e+00 4.931270e+01 4.530000e+00
      vertex   1.428956e+00 4.911278e+01 4.530000e+00
    endloop
  endfacet
  facet normal 0.000000e+00 0.000000e+00 -1.000000e+00
    outer loop
      vertex   -1.300000e+00 4.670000e+01 4.530000e+00
      vertex   1.428956e+00 4.911278e+01 4.530000e+00
      vertex   1.340634e+00 4.889217e+01 4.530000e+00
    endloop
  endfacet
  facet normal 0.000000e+00 0.000000e+00 -1.000000e+00
    outer loop
      vertex   1.340634e+00 4.889217e+01 4.530000e+00
      vertex   1.295660e+00 4.865882e+01 4.530000e+00
      vertex   -1.300000e+00 4.670000e+01 4.530000e+00
    endloop
  endfacet
  facet normal 0.000000e+00 0.000000e+00 -1.000000e+00
    outer loop
      vertex   -1.300000e+00 4.670000e+01 4.530000e+00
      vertex   1.295660e+00 4.865882e+01 4.530000e+00
      vertex   1.295660e+00 4.842118e+01 4.530000e+00
    endloop
  endfacet
  facet normal 0.000000e+00 0.000000e+00 -1.000000e+00
    outer loop
      vertex   -1.300000e+00 4.670000e+01 4.530000e+00
      vertex   1.295660e+00 4.842118e+01 4.530000e+00
      vertex   1.340634e+00 4.818783e+01 4.530000e+00
    endloop
  endfacet
  facet normal 0.000000e+00 -0.000000e+00 -1.000000e+00
    outer loop
      vertex   1.340634e+00 4.818783e+01 4.530000e+00
      vertex   1.428956e+00 4.796722e+01 4.530000e+00
      vertex   -1.300000e+00 4.670000e+01 4.530000e+00
    endloop
  endfacet
  facet normal 0.000000e+00 0.000000e+00 -1.000000e+00
    outer loop
      vertex   -1.300000e+00 4.670000e+01 4.530000e+00
      vertex   1.428956e+00 4.796722e+01 4.530000e+00
      vertex   1.557434e+00 4.776730e+01 4.530000e+00
    endloop
  endfacet
  facet normal 0.000000e+00 0.000000e+00 -1.000000e+00
    outer loop
      vertex   -1.300000e+00 4.670000e+01 4.530000e+00
      vertex   1.557434e+00 4.776730e+01 4.530000e+00
      vertex   1.721424e+00 4.759531e+01 4.530000e+00
    endloop
  endfacet
  facet normal 0.000000e+00 -0.000000e+00 -1.000000e+00
    outer loop
      vertex   1.721424e+00 4.759531e+01 4.530000e+00
      vertex   1.915000e+00 4.745747e+01 4.530000e+00
      vertex   -1.300000e+00 4.670000e+01 4.530000e+00
    endloop
  endfacet
  facet normal 0.000000e+00 0.000000e+00 -1.000000e+00
    outer loop
      vertex   -1.300000e+00 4.670000e+01 4.530000e+00
      vertex   1.915000e+00 4.745747e+01 4.530000e+00
      vertex   2.131165e+00 4.735875e+01 4.530000e+00
    endloop
  endfacet
  facet normal 0.000000e+00 0.000000e+00 -1.000000e+00
    outer loop
      vertex   -1.300000e+00 4.670000e+01 4.530000e+00
      vertex   2.131165e+00 4.735875e+01 4.530000e+00
      vertex   2.362106e+00 4.730272e+01 4.530000e+00
    endloop
  endfacet
  facet normal 0.000000e+00 -0.000000e+00 -1.000000e+00
    outer loop
      vertex   2.362106e+00 4.730272e+01 4.530000e+00
      vertex   2.599477e+00 4.729142e+01 4.530000e+00
      vertex   -1.300000e+00 4.670000e+01 4.530000e+00
    endloop
  endfacet
  facet normal 0.000000e+00 0.000000e+00 -1.000000e+00
    outer loop
      vertex   2.408741e+01 4.830344e+01 4.530000e+00
      vertex   2.411000e+01 4.854000e+01 4.530000e+00
      vertex   2.670000e+01 4.670000e+01 4.530000e+00
    endloop
  endfacet
  facet normal 0.000000e+00 0.000000e+00 -1.000000e+00
    outer loop
      vertex   2.670000e+01 4.670000e+01 4.530000e+00
      vertex   2.411000e+01 4.854000e+01 4.530000e+00
      vertex   2.408741e+01 4.877656e+01 4.530000e+00
    endloop
  endfacet
  facet normal 0.000000e+00 0.000000e+00 -1.000000e+00
    outer loop
      vertex   2.670000e+01 4.670000e+01 4.530000e+00
      vertex   2.408741e+01 4.877656e+01 4.530000e+00
      vertex   2.402046e+01 4.900458e+01 4.530000e+00
    endloop
  endfacet
  facet normal 0.000000e+00 0.000000e+00 -1.000000e+00
    outer loop
      vertex   2.402046e+01 4.900458e+01 4.530000e+00
      vertex   2.391157e+01 4.921580e+01 4.530000e+00
      vertex   2.670000e+01 4.670000e+01 4.530000e+00
    endloop
  endfacet
  facet normal 0.000000e+00 0.000000e+00 -1.000000e+00
    outer loop
      vertex   2.670000e+01 4.670000e+01 4.530000e+00
      vertex   2.391157e+01 4.921580e+01 4.530000e+00
      vertex   2.376467e+01 4.940260e+01 4.530000e+00
    endloop
  endfacet
  facet normal 0.000000e+00 0.000000e+00 -1.000000e+00
    outer loop
      vertex   2.670000e+01 4.670000e+01 4.530000e+00
      vertex   2.376467e+01 4.940260e+01 4.530000e+00
      vertex   2.670000e+01 6.308000e+01 4.530000e+00
    endloop
  endfacet
  facet normal 0.000000e+00 0.000000e+00 -1.000000e+00
    outer loop
      vertex   2.670000e+01 6.308000e+01 4.530000e+00
      vertex   2.376467e+01 4.940260e+01 4.530000e+00
      vertex   2.358507e+01 4.955822e+01 4.530000e+00
    endloop
  endfacet
  facet normal 0.000000e+00 0.000000e+00 -1.000000e+00
    outer loop
      vertex   2.670000e+01 6.308000e+01 4.530000e+00
      vertex   2.358507e+01 4.955822e+01 4.530000e+00
      vertex   2.337927e+01 4.967704e+01 4.530000e+00
    endloop
  endfacet
  facet normal 0.000000e+00 0.000000e+00 -1.000000e+00
    outer loop
      vertex   2.337927e+01 4.967704e+01 4.530000e+00
      vertex   2.315470e+01 4.975476e+01 4.530000e+00
      vertex   2.670000e+01 6.308000e+01 4.530000e+00
    endloop
  endfacet
  facet normal 0.000000e+00 0.000000e+00 -1.000000e+00
    outer loop
      vertex   2.670000e+01 6.308000e+01 4.530000e+00
      vertex   2.315470e+01 4.975476e+01 4.530000e+00
      vertex   2.291948e+01 4.978858e+01 4.530000e+00
    endloop
  endfacet
  facet normal 0.000000e+00 0.000000e+00 -1.000000e+00
    outer loop
      vertex   2.670000e+01 6.308000e+01 4.530000e+00
      vertex   2.291948e+01 4.978858e+01 4.530000e+00
      vertex   2.268211e+01 4.977728e+01 4.530000e+00
    endloop
  endfacet
  facet normal -0.000000e+00 0.000000e+00 -1.000000e+00
    outer loop
      vertex   2.268211e+01 4.977728e+01 4.530000e+00
      vertex   2.245117e+01 4.972125e+01 4.530000e+00
      vertex   2.670000e+01 6.308000e+01 4.530000e+00
    endloop
  endfacet
  facet normal 0.000000e+00 0.000000e+00 -1.000000e+00
    outer loop
      vertex   2.268211e+01 4.730272e+01 4.530000e+00
      vertex   2.291948e+01 4.729142e+01 4.530000e+00
      vertex   2.670000e+01 4.670000e+01 4.530000e+00
    endloop
  endfacet
  facet normal 0.000000e+00 0.000000e+00 -1.000000e+00
    outer loop
      vertex   2.670000e+01 4.670000e+01 4.530000e+00
      vertex   2.291948e+01 4.729142e+01 4.530000e+00
      vertex   2.315470e+01 4.732524e+01 4.530000e+00
    endloop
  endfacet
  facet normal 0.000000e+00 0.000000e+00 -1.000000e+00
    outer loop
      vertex   2.670000e+01 4.670000e+01 4.530000e+00
      vertex   2.315470e+01 4.732524e+01 4.530000e+00
      vertex   2.337927e+01 4.740296e+01 4.530000e+00
    endloop
  endfacet
  facet normal 0.000000e+00 0.000000e+00 -1.000000e+00
    outer loop
      vertex   2.337927e+01 4.740296e+01 4.530000e+00
      vertex   2.358507e+01 4.752178e+01 4.530000e+00
      vertex   2.670000e+01 4.670000e+01 4.530000e+00
    endloop
  endfacet
  facet normal 0.000000e+00 0.000000e+00 -1.000000e+00
    outer loop
      vertex   2.670000e+01 4.670000e+01 4.530000e+00
      vertex   2.358507e+01 4.752178e+01 4.530000e+00
      vertex   2.376467e+01 4.767740e+01 4.530000e+00
    endloop
  endfacet
  facet normal 0.000000e+00 0.000000e+00 -1.000000e+00
    outer loop
      vertex   2.670000e+01 4.670000e+01 4.530000e+00
      vertex   2.376467e+01 4.767740e+01 4.530000e+00
      vertex   2.391157e+01 4.786420e+01 4.530000e+00
    endloop
  endfacet
  facet normal 0.000000e+00 0.000000e+00 -1.000000e+00
    outer loop
      vertex   2.391157e+01 4.786420e+01 4.530000e+00
      vertex   2.402046e+01 4.807542e+01 4.530000e+00
      vertex   2.670000e+01 4.670000e+01 4.530000e+00
    endloop
  endfacet
  facet normal 0.000000e+00 0.000000e+00 -1.000000e+00
    outer loop
      vertex   2.670000e+01 4.670000e+01 4.530000e+00
      vertex   2.402046e+01 4.807542e+01 4.530000e+00
      vertex   2.408741e+01 4.830344e+01 4.530000e+00
    endloop
  endfacet
  facet normal 0.000000e+00 0.000000e+00 1.000000e+00
    outer loop
      vertex   3.767411e+00 4.830344e+01 5.330000e+00
      vertex   2.161566e+01 4.842118e+01 5.330000e+00
      vertex   3.790000e+00 4.854000e+01 5.330000e+00
    endloop
  endfacet
  facet normal -0.000000e+00 0.000000e+00 1.000000e+00
    outer loop
      vertex   3.790000e+00 4.854000e+01 5.330000e+00
      vertex   2.161566e+01 4.842118e+01 5.330000e+00
      vertex   2.161566e+01 4.865882e+01 5.330000e+00
    endloop
  endfacet
  facet normal 0.000000e+00 -0.000000e+00 1.000000e+00
    outer loop
      vertex   3.790000e+00 4.854000e+01 5.330000e+00
      vertex   2.161566e+01 4.865882e+01 5.330000e+00
      vertex   3.767411e+00 4.877656e+01 5.330000e+00
    endloop
  endfacet
  facet normal -0.000000e+00 0.000000e+00 1.000000e+00
    outer loop
      vertex   3.767411e+00 4.877656e+01 5.330000e+00
      vertex   2.161566e+01 4.865882e+01 5.330000e+00
      vertex   2.166063e+01 4.889217e+01 5.330000e+00
    endloop
  endfacet
  facet normal 0.000000e+00 -0.000000e+00 1.000000e+00
    outer loop
      vertex   3.767411e+00 4.877656e+01 5.330000e+00
      vertex   2.166063e+01 4.889217e+01 5.330000e+00
      vertex   3.700460e+00 4.900458e+01 5.330000e+00
    endloop
  endfacet
  facet normal -0.000000e+00 0.000000e+00 1.000000e+00
    outer loop
      vertex   3.700460e+00 4.900458e+01 5.330000e+00
      vertex   2.166063e+01 4.889217e+01 5.330000e+00
      vertex   2.174896e+01 4.911278e+01 5.330000e+00
    endloop
  endfacet
  facet normal 0.000000e+00 -0.000000e+00 1.000000e+00
    outer loop
      vertex   3.700460e+00 4.900458e+01 5.330000e+00
      vertex   2.174896e+01 4.911278e+01 5.330000e+00
      vertex   3.591567e+00 4.921580e+01 5.330000e+00
    endloop
  endfacet
  facet normal -0.000000e+00 0.000000e+00 1.000000e+00
    outer loop
      vertex   3.591567e+00 4.921580e+01 5.330000e+00
      vertex   2.174896e+01 4.911278e+01 5.330000e+00
      vertex   2.187743e+01 4.931270e+01 5.330000e+00
    endloop
  endfacet
  facet normal 0.000000e+00 -0.000000e+00 1.000000e+00
    outer loop
      vertex   3.591567e+00 4.921580e+01 5.330000e+00
      vertex   2.187743e+01 4.931270e+01 5.330000e+00
      vertex   3.444668e+00 4.940260e+01 5.330000e+00
    endloop
  endfacet
  facet normal -0.000000e+00 0.000000e+00 1.000000e+00
    outer loop
      vertex   3.444668e+00 4.940260e+01 5.330000e+00
      vertex   2.187743e+01 4.931270e+01 5.330000e+00
      vertex   2.204142e+01 4.948469e+01 5.330000e+00
    endloop
  endfacet
  facet normal 0.000000e+00 -0.000000e+00 1.000000e+00
    outer loop
      vertex   3.444668e+00 4.940260e+01 5.330000e+00
      vertex   2.204142e+01 4.948469e+01 5.330000e+00
      vertex   3.265071e+00 4.955822e+01 5.330000e+00
    endloop
  endfacet
  facet normal -0.000000e+00 0.000000e+00 1.000000e+00
    outer loop
      vertex   3.265071e+00 4.955822e+01 5.330000e+00
      vertex   2.204142e+01 4.948469e+01 5.330000e+00
      vertex   2.223500e+01 4.962253e+01 5.330000e+00
    endloop
  endfacet
  facet normal 0.000000e+00 -0.000000e+00 1.000000e+00
    outer loop
      vertex   3.265071e+00 4.955822e+01 5.330000e+00
      vertex   2.223500e+01 4.962253e+01 5.330000e+00
      vertex   3.059269e+00 4.967704e+01 5.330000e+00
    endloop
  endfacet
  facet normal -0.000000e+00 0.000000e+00 1.000000e+00
    outer loop
      vertex   3.059269e+00 4.967704e+01 5.330000e+00
      vertex   2.223500e+01 4.962253e+01 5.330000e+00
      vertex   2.245117e+01 4.972125e+01 5.330000e+00
    endloop
  endfacet
  facet normal 0.000000e+00 -0.000000e+00 1.000000e+00
    outer loop
      vertex   3.059269e+00 4.967704e+01 5.330000e+00
      vertex   2.245117e+01 4.972125e+01 5.330000e+00
      vertex   -3.000000e+00 6.478000e+01 5.330000e+00
    endloop
  endfacet
  facet normal -0.000000e+00 0.000000e+00 1.000000e+00
    outer loop
      vertex   -3.000000e+00 6.478000e+01 5.330000e+00
      vertex   2.245117e+01 4.972125e+01 5.330000e+00
      vertex   2.840000e+01 6.478000e+01 5.330000e+00
    endloop
  endfacet
  facet normal 0.000000e+00 0.000000e+00 1.000000e+00
    outer loop
      vertex   2.840000e+01 6.478000e+01 5.330000e+00
      vertex   2.245117e+01 4.972125e+01 5.330000e+00
      vertex   2.268211e+01 4.977728e+01 5.330000e+00
    endloop
  endfacet
  facet normal 0.000000e+00 0.000000e+00 1.000000e+00
    outer loop
      vertex   2.840000e+01 6.478000e+01 5.330000e+00
      vertex   2.268211e+01 4.977728e+01 5.330000e+00
      vertex   2.291948e+01 4.978858e+01 5.330000e+00
    endloop
  endfacet
  facet normal 0.000000e+00 0.000000e+00 1.000000e+00
    outer loop
      vertex   2.161566e+01 4.842118e+01 5.330000e+00
      vertex   3.767411e+00 4.830344e+01 5.330000e+00
      vertex   2.166063e+01 4.818783e+01 5.330000e+00
    endloop
  endfacet
  facet normal 0.000000e+00 0.000000e+00 1.000000e+00
    outer loop
      vertex   2.166063e+01 4.818783e+01 5.330000e+00
      vertex   3.767411e+00 4.830344e+01 5.330000e+00
      vertex   3.700460e+00 4.807542e+01 5.330000e+00
    endloop
  endfacet
  facet normal 0.000000e+00 0.000000e+00 1.000000e+00
    outer loop
      vertex   2.166063e+01 4.818783e+01 5.330000e+00
      vertex   3.700460e+00 4.807542e+01 5.330000e+00
      vertex   2.174896e+01 4.796722e+01 5.330000e+00
    endloop
  endfacet
  facet normal 0.000000e+00 0.000000e+00 1.000000e+00
    outer loop
      vertex   2.174896e+01 4.796722e+01 5.330000e+00
      vertex   3.700460e+00 4.807542e+01 5.330000e+00
      vertex   3.591567e+00 4.786420e+01 5.330000e+00
    endloop
  endfacet
  facet normal 0.000000e+00 0.000000e+00 1.000000e+00
    outer loop
      vertex   2.174896e+01 4.796722e+01 5.330000e+00
      vertex   3.591567e+00 4.786420e+01 5.330000e+00
      vertex   2.187743e+01 4.776730e+01 5.330000e+00
    endloop
  endfacet
  facet normal 0.000000e+00 0.000000e+00 1.000000e+00
    outer loop
      vertex   2.187743e+01 4.776730e+01 5.330000e+00
      vertex   3.591567e+00 4.786420e+01 5.330000e+00
      vertex   3.444668e+00 4.767740e+01 5.330000e+00
    endloop
  endfacet
  facet normal 0.000000e+00 0.000000e+00 1.000000e+00
    outer loop
      vertex   2.187743e+01 4.776730e+01 5.330000e+00
      vertex   3.444668e+00 4.767740e+01 5.330000e+00
      vertex   2.204142e+01 4.759531e+01 5.330000e+00
    endloop
  endfacet
  facet normal 0.000000e+00 0.000000e+00 1.000000e+00
    outer loop
      vertex   2.204142e+01 4.759531e+01 5.330000e+00
      vertex   3.444668e+00 4.767740e+01 5.330000e+00
      vertex   3.265071e+00 4.752178e+01 5.330000e+00
    endloop
  endfacet
  facet normal 0.000000e+00 0.000000e+00 1.000000e+00
    outer loop
      vertex   2.204142e+01 4.759531e+01 5.330000e+00
      vertex   3.265071e+00 4.752178e+01 5.330000e+00
      vertex   2.223500e+01 4.745747e+01 5.330000e+00
    endloop
  endfacet
  facet normal 0.000000e+00 0.000000e+00 1.000000e+00
    outer loop
      vertex   2.223500e+01 4.745747e+01 5.330000e+00
      vertex   3.265071e+00 4.752178e+01 5.330000e+00
      vertex   3.059269e+00 4.740296e+01 5.330000e+00
    endloop
  endfacet
  facet normal 0.000000e+00 0.000000e+00 1.000000e+00
    outer loop
      vertex   2.223500e+01 4.745747e+01 5.330000e+00
      vertex   3.059269e+00 4.740296e+01 5.330000e+00
      vertex   2.245117e+01 4.735875e+01 5.330000e+00
    endloop
  endfacet
  facet normal 0.000000e+00 0.000000e+00 1.000000e+00
    outer loop
      vertex   2.245117e+01 4.735875e+01 5.330000e+00
      vertex   3.059269e+00 4.740296e+01 5.330000e+00
      vertex   2.834699e+00 4.732524e+01 5.330000e+00
    endloop
  endfacet
  facet normal 0.000000e+00 0.000000e+00 1.000000e+00
    outer loop
      vertex   2.245117e+01 4.735875e+01 5.330000e+00
      vertex   2.834699e+00 4.732524e+01 5.330000e+00
      vertex   2.840000e+01 4.500000e+01 5.330000e+00
    endloop
  endfacet
  facet normal 0.000000e+00 0.000000e+00 1.000000e+00
    outer loop
      vertex   2.840000e+01 4.500000e+01 5.330000e+00
      vertex   2.834699e+00 4.732524e+01 5.330000e+00
      vertex   -3.000000e+00 4.500000e+01 5.330000e+00
    endloop
  endfacet
  facet normal 0.000000e+00 0.000000e+00 1.000000e+00
    outer loop
      vertex   -3.000000e+00 4.500000e+01 5.330000e+00
      vertex   2.834699e+00 4.732524e+01 5.330000e+00
      vertex   2.599477e+00 4.729142e+01 5.330000e+00
    endloop
  endfacet
  facet normal 0.000000e+00 0.000000e+00 1.000000e+00
    outer loop
      vertex   -3.000000e+00 4.500000e+01 5.330000e+00
      vertex   2.599477e+00 4.729142e+01 5.330000e+00
      vertex   2.362106e+00 4.730272e+01 5.330000e+00
    endloop
  endfacet
  facet normal 0.000000e+00 0.000000e+00 1.000000e+00
    outer loop
      vertex   2.362106e+00 4.730272e+01 5.330000e+00
      vertex   2.131165e+00 4.735875e+01 5.330000e+00
      vertex   -3.000000e+00 4.500000e+01 5.330000e+00
    endloop
  endfacet
  facet normal 0.000000e+00 0.000000e+00 1.000000e+00
    outer loop
      vertex   -3.000000e+00 4.500000e+01 5.330000e+00
      vertex   2.131165e+00 4.735875e+01 5.330000e+00
      vertex   1.915000e+00 4.745747e+01 5.330000e+00
    endloop
  endfacet
  facet normal 0.000000e+00 0.000000e+00 1.000000e+00
    outer loop
      vertex   -3.000000e+00 4.500000e+01 5.330000e+00
      vertex   1.915000e+00 4.745747e+01 5.330000e+00
      vertex   1.721424e+00 4.759531e+01 5.330000e+00
    endloop
  endfacet
  facet normal 0.000000e+00 0.000000e+00 1.000000e+00
    outer loop
      vertex   1.721424e+00 4.759531e+01 5.330000e+00
      vertex   1.557434e+00 4.776730e+01 5.330000e+00
      vertex   -3.000000e+00 4.500000e+01 5.330000e+00
    endloop
  endfacet
  facet normal 0.000000e+00 0.000000e+00 1.000000e+00
    outer loop
      vertex   -3.000000e+00 4.500000e+01 5.330000e+00
      vertex   1.557434e+00 4.776730e+01 5.330000e+00
      vertex   1.428956e+00 4.796722e+01 5.330000e+00
    endloop
  endfacet
  facet normal 0.000000e+00 0.000000e+00 1.000000e+00
    outer loop
      vertex   -3.000000e+00 4.500000e+01 5.330000e+00
      vertex   1.428956e+00 4.796722e+01 5.330000e+00
      vertex   1.340634e+00 4.818783e+01 5.330000e+00
    endloop
  endfacet
  facet normal 0.000000e+00 0.000000e+00 1.000000e+00
    outer loop
      vertex   1.340634e+00 4.818783e+01 5.330000e+00
      vertex   1.295660e+00 4.842118e+01 5.330000e+00
      vertex   -3.000000e+00 4.500000e+01 5.330000e+00
    endloop
  endfacet
  facet normal 0.000000e+00 0.000000e+00 1.000000e+00
    outer loop
      vertex   -3.000000e+00 4.500000e+01 5.330000e+00
      vertex   1.295660e+00 4.842118e+01 5.330000e+00
      vertex   1.295660e+00 4.865882e+01 5.330000e+00
    endloop
  endfacet
  facet normal 0.000000e+00 0.000000e+00 1.000000e+00
    outer loop
      vertex   -3.000000e+00 4.500000e+01 5.330000e+00
      vertex   1.295660e+00 4.865882e+01 5.330000e+00
      vertex   1.340634e+00 4.889217e+01 5.330000e+00
    endloop
  endfacet
  facet normal 0.000000e+00 -0.000000e+00 1.000000e+00
    outer loop
      vertex   1.340634e+00 4.889217e+01 5.330000e+00
      vertex   1.428956e+00 4.911278e+01 5.330000e+00
      vertex   -3.000000e+00 4.500000e+01 5.330000e+00
    endloop
  endfacet
  facet normal 0.000000e+00 0.000000e+00 1.000000e+00
    outer loop
      vertex   -3.000000e+00 4.500000e+01 5.330000e+00
      vertex   1.428956e+00 4.911278e+01 5.330000e+00
      vertex   1.557434e+00 4.931270e+01 5.330000e+00
    endloop
  endfacet
  facet normal 0.000000e+00 0.000000e+00 1.000000e+00
    outer loop
      vertex   -3.000000e+00 4.500000e+01 5.330000e+00
      vertex   1.557434e+00 4.931270e+01 5.330000e+00
      vertex   -3.000000e+00 6.478000e+01 5.330000e+00
    endloop
  endfacet
  facet normal 0.000000e+00 0.000000e+00 1.000000e+00
    outer loop
      vertex   -3.000000e+00 6.478000e+01 5.330000e+00
      vertex   1.557434e+00 4.931270e+01 5.330000e+00
      vertex   1.721424e+00 4.948469e+01 5.330000e+00
    endloop
  endfacet
  facet normal 0.000000e+00 0.000000e+00 1.000000e+00
    outer loop
      vertex   -3.000000e+00 6.478000e+01 5.330000e+00
      vertex   1.721424e+00 4.948469e+01 5.330000e+00
      vertex   1.915000e+00 4.962253e+01 5.330000e+00
    endloop
  endfacet
  facet normal 0.000000e+00 -0.000000e+00 1.000000e+00
    outer loop
      vertex   1.915000e+00 4.962253e+01 5.330000e+00
      vertex   2.131165e+00 4.972125e+01 5.330000e+00
      vertex   -3.000000e+00 6.478000e+01 5.330000e+00
    endloop
  endfacet
  facet normal 0.000000e+00 0.000000e+00 1.000000e+00
    outer loop
      vertex   -3.000000e+00 6.478000e+01 5.330000e+00
      vertex   2.131165e+00 4.972125e+01 5.330000e+00
      vertex   2.362106e+00 4.977728e+01 5.330000e+00
    endloop
  endfacet
  facet normal 0.000000e+00 0.000000e+00 1.000000e+00
    outer loop
      vertex   -3.000000e+00 6.478000e+01 5.330000e+00
      vertex   2.362106e+00 4.977728e+01 5.330000e+00
      vertex   2.599477e+00 4.978858e+01 5.330000e+00
    endloop
  endfacet
  facet normal -0.000000e+00 -0.000000e+00 1.000000e+00
    outer loop
      vertex   2.599477e+00 4.978858e+01 5.330000e+00
      vertex   2.834699e+00 4.975476e+01 5.330000e+00
      vertex   -3.000000e+00 6.478000e+01 5.330000e+00
    endloop
  endfacet
  facet normal 0.000000e+00 0.000000e+00 1.000000e+00
    outer loop
      vertex   -3.000000e+00 6.478000e+01 5.330000e+00
      vertex   2.834699e+00 4.975476e+01 5.330000e+00
      vertex   3.059269e+00 4.967704e+01 5.330000e+00
    endloop
  endfacet
  facet normal 0.000000e+00 0.000000e+00 1.000000e+00
    outer loop
      vertex   2.408741e+01 4.877656e+01 5.330000e+00
      vertex   2.411000e+01 4.854000e+01 5.330000e+00
      vertex   2.840000e+01 4.500000e+01 5.330000e+00
    endloop
  endfacet
  facet normal 0.000000e+00 0.000000e+00 1.000000e+00
    outer loop
      vertex   2.840000e+01 4.500000e+01 5.330000e+00
      vertex   2.411000e+01 4.854000e+01 5.330000e+00
      vertex   2.408741e+01 4.830344e+01 5.330000e+00
    endloop
  endfacet
  facet normal 0.000000e+00 0.000000e+00 1.000000e+00
    outer loop
      vertex   2.840000e+01 4.500000e+01 5.330000e+00
      vertex   2.408741e+01 4.830344e+01 5.330000e+00
      vertex   2.402046e+01 4.807542e+01 5.330000e+00
    endloop
  endfacet
  facet normal 0.000000e+00 0.000000e+00 1.000000e+00
    outer loop
      vertex   2.402046e+01 4.807542e+01 5.330000e+00
      vertex   2.391157e+01 4.786420e+01 5.330000e+00
      vertex   2.840000e+01 4.500000e+01 5.330000e+00
    endloop
  endfacet
  facet normal 0.000000e+00 0.000000e+00 1.000000e+00
    outer loop
      vertex   2.840000e+01 4.500000e+01 5.330000e+00
      vertex   2.391157e+01 4.786420e+01 5.330000e+00
      vertex   2.376467e+01 4.767740e+01 5.330000e+00
    endloop
  endfacet
  facet normal 0.000000e+00 0.000000e+00 1.000000e+00
    outer loop
      vertex   2.840000e+01 4.500000e+01 5.330000e+00
      vertex   2.376467e+01 4.767740e+01 5.330000e+00
      vertex   2.358507e+01 4.752178e+01 5.330000e+00
    endloop
  endfacet
  facet normal 0.000000e+00 0.000000e+00 1.000000e+00
    outer loop
      vertex   2.358507e+01 4.752178e+01 5.330000e+00
      vertex   2.337927e+01 4.740296e+01 5.330000e+00
      vertex   2.840000e+01 4.500000e+01 5.330000e+00
    endloop
  endfacet
  facet normal 0.000000e+00 0.000000e+00 1.000000e+00
    outer loop
      vertex   2.840000e+01 4.500000e+01 5.330000e+00
      vertex   2.337927e+01 4.740296e+01 5.330000e+00
      vertex   2.315470e+01 4.732524e+01 5.330000e+00
    endloop
  endfacet
  facet normal 0.000000e+00 0.000000e+00 1.000000e+00
    outer loop
      vertex   2.840000e+01 4.500000e+01 5.330000e+00
      vertex   2.315470e+01 4.732524e+01 5.330000e+00
      vertex   2.291948e+01 4.729142e+01 5.330000e+00
    endloop
  endfacet
  facet normal 0.000000e+00 0.000000e+00 1.000000e+00
    outer loop
      vertex   2.291948e+01 4.729142e+01 5.330000e+00
      vertex   2.268211e+01 4.730272e+01 5.330000e+00
      vertex   2.840000e+01 4.500000e+01 5.330000e+00
    endloop
  endfacet
  facet normal 0.000000e+00 0.000000e+00 1.000000e+00
    outer loop
      vertex   2.840000e+01 4.500000e+01 5.330000e+00
      vertex   2.268211e+01 4.730272e+01 5.330000e+00
      vertex   2.245117e+01 4.735875e+01 5.330000e+00
    endloop
  endfacet
  facet normal -0.000000e+00 0.000000e+00 1.000000e+00
    outer loop
      vertex   2.291948e+01 4.978858e+01 5.330000e+00
      vertex   2.315470e+01 4.975476e+01 5.330000e+00
      vertex   2.840000e+01 6.478000e+01 5.330000e+00
    endloop
  endfacet
  facet normal 0.000000e+00 0.000000e+00 1.000000e+00
    outer loop
      vertex   2.840000e+01 6.478000e+01 5.330000e+00
      vertex   2.315470e+01 4.975476e+01 5.330000e+00
      vertex   2.337927e+01 4.967704e+01 5.330000e+00
    endloop
  endfacet
  facet normal 0.000000e+00 0.000000e+00 1.000000e+00
    outer loop
      vertex   2.840000e+01 6.478000e+01 5.330000e+00
      vertex   2.337927e+01 4.967704e+01 5.330000e+00
      vertex   2.358507e+01 4.955822e+01 5.330000e+00
    endloop
  endfacet
  facet normal -0.000000e+00 0.000000e+00 1.000000e+00
    outer loop
      vertex   2.358507e+01 4.955822e+01 5.330000e+00
      vertex   2.376467e+01 4.940260e+01 5.330000e+00
      vertex   2.840000e+01 6.478000e+01 5.330000e+00
    endloop
  endfacet
  facet normal 0.000000e+00 0.000000e+00 1.000000e+00
    outer loop
      vertex   2.840000e+01 6.478000e+01 5.330000e+00
      vertex   2.376467e+01 4.940260e+01 5.330000e+00
      vertex   2.391157e+01 4.921580e+01 5.330000e+00
    endloop
  endfacet
  facet normal 0.000000e+00 0.000000e+00 1.000000e+00
    outer loop
      vertex   2.840000e+01 6.478000e+01 5.330000e+00
      vertex   2.391157e+01 4.921580e+01 5.330000e+00
      vertex   2.840000e+01 4.500000e+01 5.330000e+00
    endloop
  endfacet
  facet normal 0.000000e+00 0.000000e+00 1.000000e+00
    outer loop
      vertex   2.840000e+01 4.500000e+01 5.330000e+00
      vertex   2.391157e+01 4.921580e+01 5.330000e+00
      vertex   2.402046e+01 4.900458e+01 5.330000e+00
    endloop
  endfacet
  facet normal 0.000000e+00 0.000000e+00 1.000000e+00
    outer loop
      vertex   2.840000e+01 4.500000e+01 5.330000e+00
      vertex   2.402046e+01 4.900458e+01 5.330000e+00
      vertex   2.408741e+01 4.877656e+01 5.330000e+00
    endloop
  endfacet
  facet normal 0.000000e+00 -1.000000e+00 2.744951e-08
    outer loop
      vertex   -3.000000e+00 4.500000e+01 3.430000e+00
      vertex   2.840000e+01 4.500000e+01 3.430000e+00
      vertex   -3.000000e+00 4.500000e+01 5.330000e+00
    endloop
  endfacet
  facet normal 0.000000e+00 -1.000000e+00 2.744951e-08
    outer loop
      vertex   -3.000000e+00 4.500000e+01 5.330000e+00
      vertex   2.840000e+01 4.500000e+01 3.430000e+00
      vertex   2.840000e+01 4.500000e+01 5.330000e+00
    endloop
  endfacet
  facet normal -1.000000e+00 0.000000e+00 0.000000e+00
    outer loop
      vertex   -3.000000e+00 5.319000e+01 3.430000e+00
      vertex   -3.000000e+00 4.500000e+01 3.430000e+00
      vertex   -3.000000e+00 5.319000e+01 3.880000e+00
    endloop
  endfacet
  facet normal -1.000000e+00 -0.000000e+00 0.000000e+00
    outer loop
      vertex   -3.000000e+00 5.319000e+01 3.880000e+00
      vertex   -3.000000e+00 4.500000e+01 3.430000e+00
      vertex   -3.000000e+00 4.500000e+01 5.330000e+00
    endloop
  endfacet
  facet normal -1.000000e+00 0.000000e+00 0.000000e+00
    outer loop
      vertex   -3.000000e+00 5.319000e+01 3.880000e+00
      vertex   -3.000000e+00 4.500000e+01 5.330000e+00
      vertex   -3.000000e+00 5.659000e+01 3.880000e+00
    endloop
  endfacet
  facet normal -1.000000e+00 0.000000e+00 0.000000e+00
    outer loop
      vertex   -3.000000e+00 5.659000e+01 3.880000e+00
      vertex   -3.000000e+00 4.500000e+01 5.330000e+00
      vertex   -3.000000e+00 6.478000e+01 5.330000e+00
    endloop
  endfacet
  facet normal -1.000000e+00 0.000000e+00 0.000000e+00
    outer loop
      vertex   -3.000000e+00 5.659000e+01 3.880000e+00
      vertex   -3.000000e+00 6.478000e+01 5.330000e+00
      vertex   -3.000000e+00 6.478000e+01 3.430000e+00
    endloop
  endfacet
  facet normal -1.000000e+00 0.000000e+00 0.000000e+00
    outer loop
      vertex   -3.000000e+00 6.478000e+01 3.430000e+00
      vertex   -3.000000e+00 5.659000e+01 3.430000e+00
      vertex   -3.000000e+00 5.659000e+01 3.880000e+00
    endloop
  endfacet
  facet normal 0.000000e+00 1.000000e+00 -0.000000e+00
    outer loop
      vertex   2.840000e+01 6.478000e+01 3.430000e+00
      vertex   -3.000000e+00 6.478000e+01 3.430000e+00
      vertex   2.840000e+01 6.478000e+01 5.330000e+00
    endloop
  endfacet
  facet normal 0.000000e+00 1.000000e+00 0.000000e+00
    outer loop
      vertex   2.840000e+01 6.478000e+01 5.330000e+00
      vertex   -3.000000e+00 6.478000e+01 3.430000e+00
      vertex   -3.000000e+00 6.478000e+01 5.330000e+00
    endloop
  endfacet
endsolid
